<svg width="595" height="365" viewBox="0 0 595 365" fill="none" xmlns="http://www.w3.org/2000/svg">
<path d="M574.036 177.256C567.973 163.684 555.127 151.86 539.096 148.776C537.452 143.121 531.903 139.831 524.504 139.831C522.552 139.831 520.496 140.037 518.235 140.551C506.726 96.545 476.205 56.7549 433.867 35.2661C391.425 13.7774 337.886 12.2352 294.828 31.7704C285.887 22.414 270.062 20.769 258.244 23.4422C255.881 23.9563 252.489 25.2929 248.687 27.0408C243.343 25.1901 238 23.6478 232.451 22.2084C171.101 6.68303 100.502 18.3013 55.081 58.1943C51.9981 60.8675 49.1207 63.6436 46.3461 66.6253C38.3305 75.0563 31.7537 84.5154 27.8487 95.0028C25.2796 101.891 23.9437 109.397 24.2519 116.594C15.0032 121.941 9.55679 129.549 17.1613 145.383C14.695 155.048 13.4618 164.713 13.4618 174.377C13.4618 198.951 21.4773 222.907 37.7139 242.956C60.4247 270.922 94.5421 289.635 130.92 297.758C167.299 305.88 205.732 303.721 241.802 294.776C254.134 291.794 266.876 287.476 274.789 278.12C294.725 283.26 306.235 281.101 310.345 270.511C332.85 292.72 360.699 310.096 391.323 320.686C413.109 328.191 439.93 331.584 457.502 317.293L556.463 269.586C567.048 254.677 574.242 237.815 577.53 220.337C580.202 206.045 580.202 190.828 574.036 177.256ZM55.2865 201.315C40.0775 201.315 27.6431 186.51 27.6431 168.208C27.6431 149.907 39.9747 135.204 55.2865 135.204C70.5982 135.204 82.9298 150.01 82.9298 168.208C82.9298 186.407 70.4955 201.315 55.2865 201.315ZM477.438 134.587C468.395 144.869 439.005 136.13 411.875 115.052C384.746 93.9746 369.948 68.476 378.991 58.1943C388.034 47.9126 417.425 56.6521 444.554 77.7295C471.786 98.807 486.482 124.306 477.438 134.587Z" fill="white"/>
<path d="M516.18 104.154C521.113 123.38 535.808 136.13 548.962 132.84C562.115 129.447 568.795 111.145 563.862 91.9185C559.238 73.9255 546.084 61.5875 533.65 62.8213C530.053 54.4931 523.065 49.3523 516.797 50.9974C509.398 52.8481 505.698 63.1298 508.473 73.9255C509.706 78.7579 512.07 82.8706 514.947 85.7495C514.228 91.5072 514.639 97.7791 516.18 104.154Z" fill="white"/>
<path d="M561.293 268.866C562.835 267.632 564.068 265.987 565.301 264.548C566.534 263.108 567.767 261.772 568.898 260.332C571.467 257.248 574.036 254.266 576.708 251.182C581.846 245.115 586.984 239.049 592.122 232.983C592.328 232.777 592.02 231.749 592.02 231.852C586.881 237.815 581.743 243.882 576.605 249.845C574.036 252.827 571.57 255.808 569.001 258.79C566.432 261.875 563.451 264.856 561.293 268.352C561.191 268.352 561.191 268.969 561.293 268.866Z" fill="black"/>
<path d="M558.313 266.81C559.546 265.782 560.369 264.342 561.396 263.006C562.424 261.669 563.349 260.332 564.376 258.893C566.329 256.117 568.179 253.238 569.926 250.359C570.028 250.153 570.028 249.845 570.028 249.639C570.028 249.639 569.926 249.125 569.823 249.228C567.973 252.004 566.123 254.78 564.171 257.556C563.246 258.996 562.218 260.332 561.191 261.669C560.163 263.108 559.033 264.445 558.211 265.987C558.211 266.193 558.211 266.81 558.313 266.81Z" fill="black"/>
<path d="M37.4057 63.8492C26.2045 75.8788 18.8055 91.1985 15.9282 107.341C16.0309 107.238 16.0309 107.135 16.1337 107.032C8.5292 106.827 5.65182 116.389 4.41866 122.249C2.67168 130.475 2.87721 139.42 5.34353 147.542C5.4463 147.953 5.54906 147.337 5.65182 147.234C5.75458 146.822 5.65182 146.308 5.65182 145.897C3.69932 138.186 3.39103 130.269 5.24077 122.455C6.57669 117.108 9.55683 109.397 16.2364 109.397C16.3392 109.397 16.442 109.089 16.442 109.089C19.2166 92.638 26.7183 77.2154 37.5085 64.569C37.6112 64.3633 37.4057 63.7464 37.4057 63.8492Z" fill="black"/>
<path d="M243.344 4.11263C245.296 9.35629 246.426 14.8056 246.838 20.3577C246.838 20.4605 246.838 21.0774 247.043 20.9746C247.249 20.9746 247.249 20.1521 247.146 20.0493C246.838 14.1887 245.707 8.32813 243.446 2.87883C243.344 2.57038 243.241 3.08446 243.241 3.08446C243.138 3.49573 243.241 3.80418 243.344 4.11263Z" fill="black"/>
<path d="M243.652 20.6661C243.652 18.8154 243.138 16.8619 242.11 15.3196C241.185 13.8802 239.85 12.9549 238.308 12.4408C238.103 12.338 238.103 13.5718 238.103 13.6746C238.103 13.983 238.103 14.8056 238.411 14.9084C239.747 15.4225 240.98 16.4506 241.905 17.5816C242.316 18.0957 242.727 18.7126 242.932 19.3295C243.138 19.8436 243.343 20.4605 243.446 20.9746C243.446 21.0774 243.446 21.5915 243.652 21.5915C243.652 21.3858 243.652 20.6661 243.652 20.6661Z" fill="black"/>
<path d="M276.228 285.009C274.584 286.962 273.042 289.019 271.09 290.766C269.034 292.617 266.671 294.159 264.307 295.599C259.58 298.375 254.442 300.328 249.201 301.871C248.79 301.974 248.996 304.03 249.304 304.03C254.442 303.105 259.375 301.254 263.794 298.478C268.212 295.702 271.706 292.103 275.303 288.196C275.303 287.682 275.2 287.168 275.2 286.654C274.173 288.71 274.584 292 276.742 293.131C276.742 293.131 277.05 291.486 276.742 291.281C275.714 290.561 274.789 289.43 275.303 288.093C275.406 287.785 275.2 286.551 275.098 286.654C272.117 290.766 267.699 294.057 263.382 296.524C258.964 299.095 254.237 300.945 249.201 301.974C249.201 302.693 249.201 303.413 249.304 304.133C254.648 302.488 259.889 300.534 264.718 297.655C269.343 294.982 273.967 291.281 276.331 286.448C276.433 286.14 276.331 284.906 276.228 285.009Z" fill="black"/>
<path opacity="0.63" d="M232.451 22.2084C231.32 75.8788 187.44 118.959 133.592 118.959C95.7753 118.959 62.9937 97.7788 46.3461 66.6253C49.1207 63.6436 51.9981 60.8675 55.081 58.1943C100.502 18.3014 171.101 6.78586 232.451 22.2084Z" fill="white"/>
<path d="M432.223 207.484C451.131 194.632 476.822 199.465 489.668 218.383C470.759 231.235 445.068 226.403 432.223 207.484Z" fill="#050303"/>
<path opacity="0.5" d="M462.23 217.56C468.53 217.56 473.637 212.451 473.637 206.148C473.637 199.845 468.53 194.735 462.23 194.735C455.93 194.735 450.823 199.845 450.823 206.148C450.823 212.451 455.93 217.56 462.23 217.56Z" fill="#1566C6"/>
<path opacity="0.5" d="M459.455 230.31C465.755 230.31 470.862 225.2 470.862 218.897C470.862 212.594 465.755 207.484 459.455 207.484C453.155 207.484 448.048 212.594 448.048 218.897C448.048 225.2 453.155 230.31 459.455 230.31Z" fill="#1566C6"/>
<path d="M460.894 222.907C466.399 222.907 470.862 218.442 470.862 212.934C470.862 207.426 466.399 202.96 460.894 202.96C455.389 202.96 450.926 207.426 450.926 212.934C450.926 218.442 455.389 222.907 460.894 222.907Z" fill="white"/>
<path d="M460.894 219.925C464.753 219.925 467.882 216.795 467.882 212.934C467.882 209.072 464.753 205.942 460.894 205.942C457.035 205.942 453.906 209.072 453.906 212.934C453.906 216.795 457.035 219.925 460.894 219.925Z" fill="#1566C6"/>
<path d="M466.443 210.98C467.805 210.98 468.909 209.875 468.909 208.513C468.909 207.15 467.805 206.045 466.443 206.045C465.081 206.045 463.977 207.15 463.977 208.513C463.977 209.875 465.081 210.98 466.443 210.98Z" fill="white"/>
<path opacity="0.5" d="M480.213 203.68L483.913 201.213C484.735 200.596 485.865 200.904 486.482 201.727L488.948 205.428C489.462 206.148 488.846 207.073 487.921 206.97L480.522 205.531C479.7 205.325 479.494 204.194 480.213 203.68Z" fill="#1566C6"/>
<path d="M487.921 210.672L484.221 213.139C483.399 213.756 482.269 213.448 481.652 212.625L479.186 208.924C478.672 208.204 479.289 207.279 480.213 207.382L487.612 208.821C488.434 209.129 488.64 210.26 487.921 210.672Z" fill="white"/>
<path d="M432.737 220.645C433.531 220.645 434.175 220 434.175 219.205C434.175 218.41 433.531 217.766 432.737 217.766C431.942 217.766 431.298 218.41 431.298 219.205C431.298 220 431.942 220.645 432.737 220.645Z" fill="#1566C6"/>
<path opacity="0.5" d="M436.642 221.365C437.436 221.365 438.08 220.72 438.08 219.925C438.08 219.13 437.436 218.486 436.642 218.486C435.847 218.486 435.203 219.13 435.203 219.925C435.203 220.72 435.847 221.365 436.642 221.365Z" fill="#1566C6"/>
<path d="M432.017 224.655C432.812 224.655 433.456 224.01 433.456 223.215C433.456 222.42 432.812 221.776 432.017 221.776C431.223 221.776 430.579 222.42 430.579 223.215C430.579 224.01 431.223 224.655 432.017 224.655Z" fill="white"/>
<path opacity="0.5" d="M435.922 225.477C436.717 225.477 437.361 224.833 437.361 224.038C437.361 223.243 436.717 222.598 435.922 222.598C435.128 222.598 434.484 223.243 434.484 224.038C434.484 224.833 435.128 225.477 435.922 225.477Z" fill="#1566C6"/>
<path d="M166.271 90.7872C167.463 90.7872 168.429 89.8205 168.429 88.628C168.429 87.4355 167.463 86.4689 166.271 86.4689C165.079 86.4689 164.113 87.4355 164.113 88.628C164.113 89.8205 165.079 90.7872 166.271 90.7872Z" fill="#1566C6"/>
<path opacity="0.5" d="M171.615 87.9083C172.807 87.9083 173.773 86.9416 173.773 85.7491C173.773 84.5566 172.807 83.59 171.615 83.59C170.423 83.59 169.457 84.5566 169.457 85.7491C169.457 86.9416 170.423 87.9083 171.615 87.9083Z" fill="#1566C6"/>
<path d="M169.251 96.2364C170.443 96.2364 171.409 95.2697 171.409 94.0773C171.409 92.8848 170.443 91.9181 169.251 91.9181C168.06 91.9181 167.093 92.8848 167.093 94.0773C167.093 95.2697 168.06 96.2364 169.251 96.2364Z" fill="#050303"/>
<path opacity="0.5" d="M174.595 93.2547C175.787 93.2547 176.753 92.288 176.753 91.0956C176.753 89.9031 175.787 88.9364 174.595 88.9364C173.403 88.9364 172.437 89.9031 172.437 91.0956C172.437 92.288 173.403 93.2547 174.595 93.2547Z" fill="#1566C6"/>
<path d="M441.677 184.145L436.95 183.219C435.922 183.014 434.895 183.734 434.689 184.762L433.97 188.566C434.278 188.566 434.484 188.566 434.792 188.566C436.436 188.874 437.567 190.519 437.258 192.165L440.136 192.679C441.163 192.884 442.191 192.165 442.396 191.136L443.321 186.407C443.424 185.379 442.705 184.35 441.677 184.145Z" fill="#1566C6"/>
<path opacity="0.5" d="M433.764 189.491L433.97 188.463C432.634 188.566 431.504 189.594 431.195 190.931C430.887 192.576 432.017 194.221 433.662 194.529C435.306 194.838 436.95 193.707 437.258 192.062L435.306 191.65C434.278 191.548 433.559 190.519 433.764 189.491Z" fill="#FF7C00"/>
<path d="M434.792 188.566C434.484 188.463 434.278 188.463 433.97 188.566L433.764 189.594C433.559 190.622 434.278 191.651 435.306 191.856L437.258 192.267C437.567 190.52 436.436 188.874 434.792 188.566Z" fill="#FF7C00"/>
<path d="M218.167 200.287L214.262 203.166C213.44 203.783 213.234 205.017 213.851 205.839L216.112 208.924C216.317 208.718 216.42 208.513 216.728 208.307C218.064 207.279 220.017 207.587 221.044 208.924L223.408 207.176C224.23 206.559 224.435 205.325 223.819 204.503L220.941 200.596C220.222 199.773 219.092 199.567 218.167 200.287Z" fill="#1566C6"/>
<path opacity="0.5" d="M216.728 209.746L216.112 208.924C215.29 209.952 215.187 211.494 216.009 212.625C217.037 213.962 218.886 214.27 220.325 213.242C221.661 212.214 221.969 210.363 220.942 208.924L219.4 210.055C218.578 210.775 217.345 210.569 216.728 209.746Z" fill="#FF7C00"/>
<path d="M216.728 208.307C216.523 208.513 216.317 208.718 216.112 208.924L216.728 209.746C217.345 210.569 218.578 210.775 219.4 210.158L220.941 209.027C220.017 207.587 218.064 207.279 216.728 208.307Z" fill="#FF7C00"/>
<path d="M135.956 235.656L143.972 233.908V267.221L135.956 266.193V235.656Z" fill="#1566C6"/>
<path d="M143.972 233.908L151.062 235.451V267.221H143.972V233.908Z" fill="#050303"/>
<path d="M146.13 241.414H154.556V269.277L146.13 267.221V241.414Z" fill="#1566C6"/>
<path d="M154.556 241.414L165.038 242.134V269.277H154.556V241.414Z" fill="#050303"/>
<path d="M158.975 252.621V269.483L171.101 271.848V252.621H158.975Z" fill="#F8FFEE"/>
<path d="M171.101 252.621H183.33V270.511L171.101 271.848V252.621Z" fill="#050303"/>
<path d="M187.338 247.069C183.125 248.2 178.5 248.611 174.39 246.863C171.101 245.527 168.635 242.956 166.58 240.18C162.469 234.731 159.386 227.739 152.707 224.861C147.877 222.804 142.43 223.73 137.498 225.272C137.292 225.375 137.498 226.506 137.498 226.506C141.917 225.066 146.849 224.244 151.371 225.683C154.762 226.814 157.434 229.076 159.695 231.852C164.011 237.199 166.888 244.293 173.157 247.686C177.575 250.051 182.611 249.639 187.235 248.406C187.543 248.303 187.338 247.069 187.338 247.069Z" fill="#050303"/>
<path d="M173.362 245.63C173.362 246.349 173.362 247.172 173.362 247.892C173.362 247.994 173.362 248.097 173.362 248.2C173.362 248.817 173.362 249.434 173.465 250.051C173.465 249.948 173.568 250.873 173.67 250.77C173.67 250.77 173.67 250.668 173.773 250.668C173.876 250.462 173.876 250.256 173.876 250.051C173.979 249.434 173.979 248.817 173.979 248.2C173.979 247.48 173.979 246.658 173.979 245.938C173.979 245.835 173.979 245.732 173.979 245.63C173.979 245.013 173.979 244.396 173.876 243.779C173.876 243.882 173.773 242.956 173.67 243.059C173.67 243.059 173.67 243.162 173.568 243.162C173.465 243.368 173.465 243.573 173.465 243.779C173.362 244.396 173.362 245.013 173.362 245.63Z" fill="#050303"/>
<path d="M160.619 230.001C160.619 231.338 160.619 232.675 160.619 233.908C160.619 234.114 160.619 234.32 160.619 234.422C160.619 235.039 160.619 235.656 160.722 236.273C160.722 236.273 160.825 236.993 160.928 236.993C161.133 236.993 161.133 236.273 161.133 236.273C161.236 235.656 161.236 235.039 161.236 234.422C161.236 233.086 161.236 231.749 161.236 230.515C161.236 230.31 161.236 230.104 161.236 230.001C161.236 229.384 161.236 228.768 161.133 228.151C161.133 228.151 161.03 227.431 160.928 227.431C160.722 227.431 160.722 228.151 160.722 228.151C160.619 228.768 160.619 229.384 160.619 230.001Z" fill="#050303"/>
<path d="M146.541 223.01C146.541 223.73 146.541 224.552 146.541 225.272C146.541 225.375 146.541 225.477 146.541 225.58C146.541 226.197 146.541 226.814 146.644 227.431C146.644 227.328 146.746 228.253 146.849 228.151C146.849 228.151 146.849 228.048 146.952 228.048C147.055 227.842 147.055 227.637 147.055 227.431C147.157 226.814 147.157 226.197 147.157 225.58C147.157 224.861 147.157 224.038 147.157 223.318C147.157 223.215 147.157 223.113 147.157 223.01C147.157 222.393 147.157 221.776 147.055 221.159C147.055 221.262 146.952 220.337 146.849 220.439C146.849 220.439 146.849 220.542 146.746 220.542C146.644 220.748 146.644 220.953 146.644 221.159C146.541 221.776 146.541 222.393 146.541 223.01Z" fill="#050303"/>
<path d="M137.498 225.889C137.498 229.384 134.62 232.263 131.126 232.263C127.632 232.263 131.743 229.384 131.743 225.889C131.743 222.393 127.632 219.514 131.126 219.514C134.62 219.514 137.498 222.393 137.498 225.889Z" fill="#FF7C00"/>
<path d="M131.332 228.151C132.58 228.151 133.593 227.138 133.593 225.889C133.593 224.639 132.58 223.627 131.332 223.627C130.083 223.627 129.071 224.639 129.071 225.889C129.071 227.138 130.083 228.151 131.332 228.151Z" fill="#F8FFEE"/>
<path opacity="0.5" d="M130.099 228.151C131.347 228.151 132.359 227.138 132.359 225.889C132.359 224.639 131.347 223.627 130.099 223.627C128.85 223.627 127.838 224.639 127.838 225.889C127.838 227.138 128.85 228.151 130.099 228.151Z" fill="#1566C6"/>
<path d="M204.91 283.672C195.867 282.13 186.824 280.484 177.781 278.942C163.394 276.475 148.904 273.904 134.518 271.437C131.229 270.82 127.838 270.306 124.549 269.689C124.549 269.689 124.344 270.923 124.549 270.923C133.593 272.465 142.636 274.11 151.679 275.652C166.066 278.12 180.556 280.69 194.942 283.158C198.231 283.775 201.622 284.289 204.91 284.906C204.91 285.008 205.013 283.775 204.91 283.672Z" fill="#FF7C00"/>
<path d="M123.316 267.632C123.827 267.632 124.241 267.218 124.241 266.707C124.241 266.196 123.827 265.782 123.316 265.782C122.806 265.782 122.391 266.196 122.391 266.707C122.391 267.218 122.806 267.632 123.316 267.632Z" fill="#1566C6"/>
<path d="M124.344 274.418C124.855 274.418 125.269 274.004 125.269 273.493C125.269 272.982 124.855 272.568 124.344 272.568C123.833 272.568 123.419 272.982 123.419 273.493C123.419 274.004 123.833 274.418 124.344 274.418Z" fill="#1566C6"/>
<path d="M118.178 271.025C119.483 271.025 120.542 269.967 120.542 268.661C120.542 267.355 119.483 266.296 118.178 266.296C116.873 266.296 115.815 267.355 115.815 268.661C115.815 269.967 116.873 271.025 118.178 271.025Z" fill="#050303"/>
<path d="M295.445 71.0464L245.913 62.8211C241.905 62.2042 238.308 65.1858 238.308 69.2985V70.4295L285.99 78.3464C289.176 78.8605 291.437 81.6366 291.437 84.8239V114.949L293.287 115.258C297.294 115.875 300.891 112.893 300.891 108.78V77.5239C300.891 74.2337 298.63 71.5605 295.445 71.0464Z" fill="#050303"/>
<path opacity="0.5" d="M238.308 100.555V70.4296L236.459 70.1211C232.451 69.5042 228.854 72.4859 228.854 76.5986V107.855C228.854 111.042 231.218 113.818 234.3 114.332L283.832 122.558C287.84 123.175 291.437 120.193 291.437 116.08V114.949L243.755 107.032C240.672 106.518 238.308 103.742 238.308 100.555Z" fill="#1566C6"/>
<path d="M286.093 78.3465L238.411 70.4296V100.555C238.411 103.742 240.775 106.518 243.857 107.032L291.54 114.949V84.8239C291.54 81.6366 289.176 78.8605 286.093 78.3465Z" fill="#050303"/>
<path d="M286.093 78.3465L238.411 70.4296V100.555C238.411 103.742 240.775 106.518 243.857 107.032L291.54 114.949V84.8239C291.54 81.6366 289.176 78.8605 286.093 78.3465Z" fill="#1566C6"/>
<path d="M286.915 86.5718C280.75 85.5436 274.686 84.5154 268.521 83.4873C258.758 81.8422 248.996 80.1971 239.233 78.4492C236.972 78.038 234.711 77.7295 232.451 77.3182C232.451 77.3182 232.348 77.8323 232.451 77.8323C238.617 78.8605 244.68 79.8887 250.845 80.9168C260.608 82.5619 270.37 84.207 280.133 85.9549C282.394 86.3661 284.655 86.6746 286.915 87.0858C286.915 87.0858 287.018 86.5718 286.915 86.5718Z" fill="white"/>
<path d="M261.802 79.011C261.95 78.2299 261.347 77.4596 260.454 77.2904C259.562 77.1213 258.719 77.6173 258.571 78.3984C258.423 79.1794 259.026 79.9498 259.919 80.1189C260.811 80.2881 261.654 79.792 261.802 79.011Z" fill="#F0F1F1"/>
<path d="M262.458 81.0197C262.685 81.0197 262.869 80.8355 262.869 80.6084C262.869 80.3813 262.685 80.1971 262.458 80.1971C262.231 80.1971 262.047 80.3813 262.047 80.6084C262.047 80.8355 262.231 81.0197 262.458 81.0197Z" fill="#F0F1F1"/>
<path fill-rule="evenodd" clip-rule="evenodd" d="M250.948 97.5732L247.66 100.349C247.454 100.452 247.249 100.555 247.043 100.555C246.838 100.555 246.529 100.349 246.427 100.144C246.015 99.7324 246.015 99.1155 246.427 98.807L249.098 96.6479L246.427 93.5633C246.015 93.1521 246.015 92.5352 246.427 92.2267C246.838 91.9183 247.351 92.0211 247.762 92.4324L251.051 96.2366C251.359 96.6479 251.359 97.2648 250.948 97.5732ZM243.96 102.303C244.371 102.714 244.371 103.331 243.96 103.639C243.755 103.742 243.549 103.845 243.344 103.845C243.138 103.845 242.83 103.639 242.727 103.434L239.439 99.6295C239.028 99.2183 239.13 98.6014 239.439 98.2929L242.727 95.5169C243.138 95.2084 243.652 95.3112 244.063 95.7225C244.474 96.1338 244.371 96.7507 244.063 97.0591L241.391 99.2183L243.96 102.303ZM250.434 86.9831L239.952 85.338C236.047 84.7211 233.376 86.9831 233.376 91.0957L233.273 100.966C233.273 105.079 235.842 108.266 239.747 108.986L250.229 110.734C254.134 111.351 256.806 108.986 256.806 104.873V95.0028C257.011 90.7873 254.339 87.6 250.434 86.9831Z" fill="#F0F1F1"/>
<path d="M307.982 112.996C311.579 120.193 315.278 127.39 318.875 134.587C319.389 135.615 319.902 136.644 320.416 137.672C320.416 137.261 320.416 136.849 320.416 136.438C317.025 135.924 313.634 135.41 310.345 134.793C302.227 133.456 294.212 132.223 286.093 130.886C276.331 129.344 266.465 127.801 256.703 126.156C248.276 124.82 239.747 123.483 231.32 122.146C228.546 121.735 225.771 121.221 222.997 120.81C222.072 120.707 221.25 120.501 220.325 120.399C220.016 120.296 219.297 120.09 218.989 120.193C218.989 120.193 218.886 120.193 218.783 120.193C218.783 120.193 218.578 121.427 218.783 121.427C222.174 121.941 225.566 122.455 228.854 123.072C236.972 124.408 244.988 125.642 253.106 126.979C262.869 128.521 272.734 130.063 282.497 131.708C290.923 133.045 299.453 134.382 307.879 135.718C310.654 136.13 313.428 136.644 316.203 137.055C317.128 137.158 317.95 137.363 318.875 137.466C319.183 137.569 319.902 137.775 320.211 137.672C320.211 137.672 320.313 137.672 320.416 137.672C320.519 137.672 320.519 136.541 320.416 136.438C316.82 129.241 313.12 122.044 309.523 114.846C309.01 113.818 308.496 112.79 307.982 111.762C308.085 111.968 307.879 112.687 307.982 112.996Z" fill="#FF7C00"/>
<path d="M291.334 60.2506C294.417 58.1943 297.808 56.2408 301.611 56.0351C305.104 55.8295 308.701 57.4746 310.037 60.8675C310.962 63.3351 309.832 65.9056 308.187 67.6535C307.16 68.8873 305.413 70.0182 303.666 69.4013C302.124 68.7844 301.919 66.9337 302.844 65.5971C303.46 64.7746 304.282 64.2605 305.104 63.8492C306.646 63.1295 308.496 62.9239 310.243 63.438C311.99 63.952 313.634 65.1858 314.559 66.7281C316.1 69.1957 315.792 72.1774 315.484 74.8506C315.484 75.0563 315.586 75.776 315.689 75.2619C316.203 71.0464 316.306 66.214 312.195 63.6436C310.14 62.4098 307.468 62.2042 305.31 63.2323C303.666 63.952 302.124 65.2887 302.022 67.1394C301.919 68.7844 302.844 70.2239 304.488 70.3267C306.851 70.5323 308.701 68.1675 309.626 66.3168C311.373 62.8211 310.345 58.7084 306.954 56.652C301.713 53.3619 295.547 56.652 291.129 59.8394C291.231 59.8394 291.231 60.2506 291.334 60.2506Z" fill="black"/>
<path d="M306.44 228.357L287.634 232.469C283.01 233.497 278.591 229.899 278.591 225.169V206.765C278.591 203.269 281.057 200.185 284.449 199.465L303.254 195.352C307.879 194.324 312.298 197.923 312.298 202.652V221.057C312.298 224.552 309.934 227.637 306.44 228.357Z" fill="#1566C6"/>
<path d="M310.243 224.655L291.437 228.768C286.813 229.796 282.394 226.197 282.394 221.468V203.064C282.394 199.568 284.86 196.483 288.251 195.764L307.057 191.651C311.681 190.623 316.1 194.221 316.1 198.951V217.355C316.1 220.851 313.634 223.833 310.243 224.655Z" fill="#050303"/>
<path d="M314.867 220.028L296.061 224.141C291.437 225.169 287.018 221.571 287.018 216.841V198.437C287.018 194.941 289.484 191.857 292.876 191.137L311.681 187.024C316.306 185.996 320.724 189.595 320.724 194.324V212.728C320.724 216.224 318.258 219.309 314.867 220.028Z" fill="white"/>
<path d="M321.238 212.728H320.211V194.324C320.211 192.165 319.286 190.212 317.642 188.875C315.997 187.538 313.839 187.024 311.784 187.538L311.578 186.51C313.942 185.996 316.408 186.613 318.258 188.052C320.108 189.492 321.238 191.857 321.238 194.221V212.728Z" fill="#020202"/>
<path d="M300.172 213.654L300.069 209.438C300.069 209.13 300.069 208.719 300.275 208.41C300.377 208.102 300.583 207.69 300.788 207.485C300.994 207.176 301.302 206.971 301.61 206.765C301.919 206.559 302.227 206.457 302.638 206.354L304.18 206.045L306.749 205.531C307.057 205.428 307.468 205.326 307.776 205.12C308.085 204.914 308.393 204.709 308.598 204.4C308.804 204.092 309.009 203.783 309.112 203.475C309.215 203.166 309.318 202.755 309.318 202.447V200.082L309.729 199.979L311.784 199.568C311.887 199.568 312.092 199.568 312.195 199.465H312.298C312.298 199.465 312.298 199.465 312.401 199.465C312.503 199.465 312.606 199.465 312.606 199.465H312.709C312.812 199.465 312.914 199.465 312.914 199.568H313.017C313.12 199.568 313.223 199.671 313.223 199.671C313.325 199.773 313.531 199.876 313.634 199.979C313.737 200.082 313.839 200.185 313.839 200.287C313.839 200.39 313.942 200.39 313.942 200.493C313.942 200.493 313.942 200.596 314.045 200.596C314.045 200.596 314.045 200.596 314.045 200.699C314.045 200.802 314.045 200.802 314.148 200.904C314.148 201.007 314.25 201.213 314.25 201.316C314.25 201.418 314.25 201.418 314.25 201.521V206.045C314.25 206.148 314.25 206.148 314.25 206.251C314.25 206.457 314.25 206.559 314.148 206.765C314.148 206.868 314.148 206.868 314.148 206.971C314.148 207.073 314.148 207.073 314.045 207.176C314.045 207.279 313.942 207.382 313.942 207.485C313.942 207.587 313.839 207.587 313.839 207.587L313.736 207.69L313.634 207.793L313.531 207.896L313.428 207.999C313.325 208.102 313.325 208.102 313.223 208.204L313.12 208.307L313.017 208.41L312.914 208.513C312.914 208.513 312.812 208.616 312.709 208.616C312.606 208.616 312.606 208.718 312.503 208.718C312.401 208.718 312.401 208.821 312.298 208.821C312.298 208.821 312.195 208.821 312.195 208.924C312.092 208.924 312.092 208.924 311.99 209.027H311.887H311.784C311.784 209.027 311.681 209.027 311.578 209.027L304.693 210.569H304.591L304.488 210.672L304.385 210.775V210.878V210.98C304.385 210.98 304.385 211.083 304.488 211.083H304.591H304.693L309.523 210.055V211.495C309.523 211.7 309.523 211.803 309.523 212.009C309.523 212.111 309.42 212.214 309.42 212.42C309.318 212.626 309.215 212.934 309.112 213.14C309.009 213.242 309.009 213.345 308.907 213.448C308.701 213.757 308.393 213.962 308.085 214.168C307.776 214.373 307.468 214.476 307.057 214.579L302.535 215.607C302.433 215.607 302.433 215.607 302.33 215.607C302.227 215.607 302.227 215.607 302.124 215.607C302.021 215.607 302.021 215.607 301.919 215.607H301.816C301.713 215.607 301.713 215.607 301.61 215.607C301.61 215.607 301.61 215.607 301.508 215.607H301.405H301.302H301.199C301.097 215.607 301.097 215.607 300.994 215.504H300.891C300.583 215.299 300.377 215.093 300.172 214.785C300.275 214.373 300.172 213.962 300.172 213.654Z" fill="#FF7C00"/>
<path d="M307.982 212.934C308.29 212.831 308.496 212.523 308.496 212.214C308.496 211.906 308.29 211.7 307.982 211.803C307.674 211.906 307.468 212.214 307.468 212.42C307.468 212.831 307.674 213.037 307.982 212.934Z" fill="white"/>
<path d="M309.009 197.923V201.213C309.009 201.624 309.009 202.035 309.009 202.447C309.009 202.961 308.804 203.475 308.496 203.886C308.187 204.297 307.776 204.709 307.262 204.914C306.646 205.223 306.029 205.223 305.413 205.428C305.002 205.531 304.591 205.634 304.18 205.737C303.666 205.84 303.049 205.942 302.535 206.045C302.124 206.148 301.61 206.354 301.199 206.662C300.788 206.971 300.48 207.279 300.172 207.69C299.658 208.41 299.658 209.233 299.658 209.952L299.761 211.803L300.069 211.495C299.35 211.7 298.63 211.803 297.911 212.009C297.5 212.112 297.089 212.111 296.678 212.111C296.37 212.009 296.061 211.906 295.856 211.7C295.65 211.495 295.445 211.289 295.342 210.981C295.034 210.364 295.136 209.644 295.136 208.924L295.034 206.251C295.034 206.045 295.034 205.737 295.034 205.531C295.034 205.12 295.136 204.709 295.342 204.4C295.547 203.989 295.753 203.68 296.164 203.372L295.958 203.475C296.164 203.475 296.37 203.269 296.472 203.166C296.678 203.064 296.883 202.961 297.089 202.858C297.192 202.858 297.294 202.755 297.5 202.755C297.911 202.652 298.322 202.55 298.733 202.447L304.18 201.316C304.488 201.213 304.899 201.213 305.104 200.802C305.104 200.699 305.207 200.699 305.207 200.596C305.207 200.493 305.207 200.493 305.207 200.39C305.207 200.288 305.207 200.288 305.104 200.185L305.002 200.082C304.899 200.082 304.693 200.082 304.488 200.082C303.974 200.185 303.563 200.288 303.049 200.39L299.555 201.11L299.863 201.213C299.863 200.493 299.658 199.568 299.966 198.848C300.069 198.437 300.275 198.128 300.583 197.82C300.891 197.511 301.199 197.203 301.508 197.1C301.816 196.997 302.124 196.895 302.33 196.895C303.768 196.586 305.207 196.278 306.646 195.969C307.262 195.866 307.879 195.969 308.393 196.381C308.701 196.689 309.009 197.306 309.009 197.923C309.009 198.231 309.626 198.026 309.626 197.717C309.626 196.997 309.318 196.381 308.804 195.969C308.29 195.558 307.673 195.352 306.954 195.455C306.338 195.558 305.618 195.661 305.002 195.866L302.33 196.381C301.199 196.586 300.275 197.1 299.555 198.128C298.836 199.259 299.041 200.39 299.041 201.419C299.041 201.624 299.144 201.624 299.35 201.521L303.768 200.596C303.871 200.596 304.591 200.288 304.488 200.596C304.488 200.699 304.077 200.699 303.974 200.699L298.836 201.83C297.808 202.035 296.781 202.138 295.856 202.961L296.061 202.858C295.753 202.961 295.445 203.372 295.239 203.578C295.034 203.886 294.828 204.195 294.725 204.606C294.623 205.017 294.52 205.428 294.52 205.84L294.623 208.513C294.623 209.233 294.623 210.055 294.725 210.672C294.931 211.289 295.239 211.803 295.856 212.111C296.37 212.42 297.089 212.523 297.705 212.317C298.528 212.111 299.35 211.906 300.172 211.803C300.275 211.803 300.48 211.597 300.48 211.495V209.952C300.48 209.335 300.377 208.719 300.686 207.999C300.891 207.588 301.199 207.176 301.508 206.971C301.919 206.662 302.33 206.457 302.741 206.354C303.357 206.251 303.974 206.045 304.591 205.942L305.721 205.737C306.338 205.634 307.057 205.531 307.673 205.12C308.085 204.914 308.496 204.503 308.804 204.195C309.112 203.783 309.42 203.372 309.523 202.858C309.626 202.344 309.626 201.83 309.626 201.419V197.717C309.626 197.409 309.009 197.614 309.009 197.923Z" fill="#060F22"/>
<path d="M301.302 199.465C301.61 199.362 301.919 199.054 301.919 198.745C301.919 198.437 301.61 198.231 301.302 198.334C300.994 198.437 300.686 198.745 300.686 199.054C300.686 199.362 300.994 199.568 301.302 199.465Z" fill="#060F22"/>
<path d="M313.737 232.675C314.148 229.385 317.23 226.609 320.519 226.197C321.238 226.095 322.369 226.197 322.882 226.814C323.602 227.637 321.752 228.459 321.136 228.562C320.108 228.562 319.389 227.534 319.286 226.506C319.286 225.581 319.8 224.655 320.416 223.935C321.752 222.29 323.91 221.982 325.863 221.365C325.965 221.365 325.965 220.748 325.863 220.748C323.705 221.057 321.135 221.776 319.902 223.833C319.08 225.169 318.772 227.637 320.108 228.768C321.444 229.899 324.116 228.048 323.191 226.403C322.677 225.375 321.238 225.272 320.211 225.375C319.183 225.478 318.155 225.992 317.231 226.609C315.278 227.945 313.839 230.002 313.634 232.366C313.634 232.469 313.634 232.983 313.737 232.675Z" fill="#020202"/>
<path d="M285.066 187.333C284.963 187.436 284.963 187.641 284.963 187.847C284.963 188.052 284.86 188.258 284.86 188.464C284.86 188.772 284.757 189.081 284.757 189.389C284.655 190.212 284.655 191.034 284.655 191.959C284.655 192.268 284.655 192.576 284.655 192.885C284.655 192.988 284.655 193.193 284.757 193.399C284.963 193.707 285.066 192.988 285.066 192.885C285.168 192.062 285.168 191.24 285.271 190.417C285.271 189.492 285.374 188.567 285.271 187.641C285.271 187.538 285.168 187.23 285.066 187.333Z" fill="#020202"/>
<path d="M274.995 197.717C275.714 198.026 276.433 198.128 277.256 198.334C277.564 198.437 277.872 198.437 278.18 198.54C278.591 198.642 279.003 198.642 279.414 198.642C279.619 198.642 279.619 197.512 279.414 197.512C279.003 197.409 278.591 197.306 278.18 197.306C277.872 197.306 277.564 197.203 277.256 197.203C276.536 197.1 275.714 196.997 275.098 197.306C274.892 197.1 274.892 197.717 274.995 197.717Z" fill="#020202"/>
<path d="M279.208 190.726C279.619 191.445 280.03 192.062 280.544 192.782C280.749 193.09 280.955 193.399 281.16 193.81C281.366 194.016 281.469 194.324 281.674 194.53C281.777 194.633 281.88 194.735 281.88 194.838C281.88 194.427 281.88 193.913 281.88 193.502C281.777 193.399 281.674 193.296 281.674 193.193C281.572 193.09 281.469 193.605 281.469 193.707C281.469 193.913 281.469 194.324 281.572 194.53C281.674 194.633 281.674 194.735 281.777 194.838C281.88 194.941 281.983 194.427 281.983 194.324C281.983 194.016 281.983 193.707 281.88 193.502C281.263 192.474 280.544 191.548 279.825 190.726C279.619 190.417 279.414 190.212 279.105 189.903C279.002 189.8 279.002 190.212 279.002 190.212C279.105 190.417 279.105 190.623 279.208 190.726Z" fill="#020202"/>
<path d="M84.4715 66.8308C84.6771 64.1576 82.9301 61.5871 80.4638 61.1759L52.4094 56.035C49.532 55.5209 46.9629 57.4745 46.6546 60.4562L43.2634 94.797L82.0052 98.0871L84.4715 66.8308Z" fill="black"/>
<path d="M50.2515 64.9445L47.3796 95.0366L48.0957 95.105L50.9676 65.0129L50.2515 64.9445Z" fill="white"/>
<path d="M51.5873 59.0167L50.8679 58.9139C50.9707 57.6801 51.4845 56.6519 52.2038 55.7266L52.8204 56.2406C52.1011 57.0632 51.69 57.9885 51.5873 59.0167Z" fill="white"/>
<path d="M87.1434 98.4984L86.4241 98.3956L88.9931 65.597C89.1987 62.9237 87.5545 60.4561 85.2937 60.0449L57.0337 54.6984C55.3895 54.3899 53.8481 55.0068 52.8204 56.2406L52.2039 55.7265C53.437 54.2871 55.2868 53.5674 57.1365 53.9787L85.3964 59.3251C88.0683 59.8392 90.0208 62.7181 89.7125 65.6998L87.1434 98.4984Z" fill="black"/>
<path opacity="0.5" d="M88.4794 98.6012L82.108 98.0871L81.9025 100.76L43.058 97.6758L43.3662 94.6942L42.1331 94.5913C41.4137 94.4885 40.7972 95.1054 40.6944 95.8251L40.1806 101.172C40.0778 101.891 40.5916 102.508 41.311 102.508L87.8628 105.593C88.3766 105.593 88.8904 105.181 88.9932 104.462L89.4042 99.7322C89.4042 99.2181 88.9932 98.6012 88.4794 98.6012Z" fill="#1566C6"/>
<path d="M81.7998 100.76L82.0053 97.9844L43.2635 94.6942L42.9552 97.6759L81.7998 100.76Z" fill="black"/>
<path d="M81.7998 100.76L82.0053 97.9844L43.2635 94.6942L42.9552 97.6759L81.7998 100.76Z" fill="#1566C6"/>
<path d="M78.9223 58.5026L64.2272 55.7266L66.1797 53.259C66.7963 52.5393 67.6184 52.2308 68.5432 52.4364L75.4284 53.7731C76.3533 53.9787 77.0726 54.5956 77.4837 55.5209L78.9223 58.5026Z" fill="black"/>
<path d="M66.2588 104.213L65.5256 112.715L66.2423 112.777L66.9755 104.275L66.2588 104.213Z" fill="black"/>
<path d="M60.0047 103.602L53.3202 117.156L54.0575 117.52L60.742 103.966L60.0047 103.602Z" fill="black"/>
<path d="M73.3759 104.538L72.6844 104.736L76.5376 118.177L77.229 117.979L73.3759 104.538Z" fill="black"/>
<path d="M66.8991 84.6182C68.8516 84.8238 73.3732 82.8703 74.1953 78.6548C74.6064 76.3928 73.3732 74.028 71.2152 73.6168C69.8793 73.3083 68.5433 73.9252 67.7212 75.0562C67.1046 73.7196 65.9742 72.7942 64.5356 72.6914C62.3775 72.4858 60.6305 74.3365 60.6305 76.7013C60.5278 81.328 64.9466 84.4125 66.8991 84.6182Z" fill="#FF7C00"/>
<path d="M68.5433 85.2351C68.4405 85.2351 68.235 85.2351 68.1322 85.2351C65.9742 85.0294 60.836 81.5337 60.9388 76.1872C60.9388 74.7478 61.5554 73.514 62.583 72.5886C63.4051 71.8689 64.5355 71.4576 65.5631 71.5604C67.0018 71.6633 68.3377 72.5886 69.1598 74.028C70.0847 72.897 71.5234 72.383 72.9621 72.6914C75.3256 73.2055 76.9699 75.8787 76.456 78.552C75.6339 82.8703 71.0096 85.2351 68.5433 85.2351ZM68.235 84.721C70.0847 84.9266 75.0174 82.9731 75.9422 78.3463C76.3533 75.8787 75.0174 73.514 72.8593 73.1027C71.5234 72.7942 70.1875 73.4111 69.3654 74.5421L69.0571 74.9534L68.8516 74.5421C68.235 73.1027 67.0018 72.1773 65.5631 72.0745C64.6383 71.9717 63.7134 72.2801 62.994 72.9999C62.0692 73.8224 61.5554 74.9534 61.5554 76.1872C61.4526 81.2252 66.1797 84.4125 68.235 84.721Z" fill="white"/>
<path d="M69.6736 71.3547C69.6736 71.0463 69.6736 70.7378 69.7764 70.4294C69.7764 69.8125 69.7764 69.0928 69.5709 68.4759C69.5709 68.3731 69.5709 68.3731 69.5709 68.2702C69.5709 68.1674 69.4681 67.9618 69.3653 67.859C69.3653 67.7562 69.2626 67.7562 69.2626 67.859C69.1598 67.859 69.1598 67.9618 69.1598 68.0646C69.0571 68.2702 69.0571 68.4759 69.0571 68.6815C68.9543 69.2984 68.9543 69.9153 69.0571 70.5322C69.0571 70.8407 69.1598 71.1491 69.1598 71.4576C69.1598 71.6632 69.2626 71.8688 69.2626 71.9716C69.2626 72.0745 69.3653 72.1773 69.4681 72.1773C69.5709 72.1773 69.5709 72.0745 69.6736 71.9716C69.6736 71.766 69.6736 71.5604 69.6736 71.3547Z" fill="white"/>
<path d="M69.2627 72.0744C69.2627 72.0744 69.3654 72.1772 69.4682 72.1772C69.4682 72.1772 69.571 72.1772 69.6737 72.1772C69.7765 72.1772 69.8792 72.0744 69.982 71.9716C70.1875 71.8688 70.3931 71.766 70.7013 71.5603C70.9069 71.4575 71.2152 71.2519 71.4207 71.0462C71.6262 70.8406 71.8317 70.635 72.0373 70.4293C72.14 70.3265 72.14 70.0181 72.14 69.9153C72.14 69.7096 72.14 69.4012 72.14 69.1955C72.14 69.0927 72.0373 68.0646 71.8317 68.1674C71.6262 68.2702 71.4207 68.373 71.1124 68.4758C70.9069 68.5786 70.5986 68.7843 70.3931 68.9899C70.1875 69.1955 69.982 69.4012 69.7765 69.6068C69.6737 69.7096 69.5709 69.8124 69.4682 69.9153C69.3654 70.0181 69.3654 70.0181 69.2627 70.1209C69.1599 70.2237 69.1599 70.3265 69.1599 70.4293C69.0571 70.7378 69.0571 71.0462 69.0571 71.3547C69.0571 71.5603 69.0571 71.6631 69.1599 71.8688C69.1599 71.9716 69.1599 72.0744 69.2627 72.0744Z" fill="white"/>
<path d="M170.896 176.537C172.334 175.817 173.876 176.125 175.006 177.154C175.212 175.303 174.801 173.452 173.67 171.91C172.231 169.956 169.971 169.237 167.813 170.162C164.01 171.704 162.366 176.742 164.216 180.444C165.038 182.192 166.477 183.323 168.121 183.528C167.299 180.752 168.635 177.668 170.896 176.537Z" fill="#050303"/>
<path opacity="0.5" d="M176.65 180.752C176.547 179.107 175.931 177.873 175.109 177.051C174.903 179.21 173.876 181.163 172.231 182.5C170.998 183.425 169.56 183.734 168.224 183.528C169.149 186.613 172.231 187.744 174.698 185.687C175.931 184.556 176.753 182.603 176.65 180.752Z" fill="#1566C6"/>
<path d="M172.129 182.5C173.773 181.266 174.801 179.21 175.006 177.051C173.876 176.023 172.334 175.714 170.896 176.434C168.532 177.565 167.299 180.752 168.121 183.425C169.457 183.734 170.896 183.425 172.129 182.5Z" fill="#1566C6"/>
<path d="M190.215 146.308C193.195 149.599 194.531 154.842 193.401 159.88C191.962 166.666 186.516 170.882 180.966 169.134C180.555 169.031 180.042 168.825 179.63 168.62C180.761 169.648 181.994 170.47 183.33 170.882C188.776 172.527 194.12 168.311 195.559 161.628C196.895 155.459 194.531 149.085 190.215 146.308Z" fill="black"/>
<path opacity="0.5" d="M175.931 154.225C177.678 147.028 183.536 143.224 188.982 145.692C189.393 145.897 189.804 146.103 190.215 146.309C189.188 145.178 188.057 144.252 186.721 143.738C181.172 141.27 175.109 144.972 173.362 152.272C171.718 159.058 174.595 166.152 179.631 168.62C176.342 165.33 174.698 159.675 175.931 154.225Z" fill="#1566C6"/>
<path d="M193.401 159.88C194.531 154.842 193.093 149.599 190.215 146.308C189.804 146.103 189.393 145.794 188.982 145.692C183.638 143.327 177.678 147.028 175.931 154.225C174.595 159.777 176.239 165.432 179.631 168.62C180.042 168.825 180.453 169.031 180.966 169.134C186.516 170.882 191.962 166.666 193.401 159.88Z" fill="#1566C6"/>
<path d="M186.824 160.497C187.132 158.955 186.618 157.824 185.488 156.693C184.563 155.768 184.152 155.254 184.358 154.328C184.563 153.609 185.18 153.095 186.002 153.506C186.721 153.814 187.235 154.328 187.441 154.74L188.057 153.506C187.749 153.095 187.235 152.683 186.721 152.272L186.927 151.244L185.796 150.73L185.591 151.861C184.255 151.655 183.227 152.58 182.919 153.917C182.611 155.151 183.124 156.487 184.358 157.618C185.283 158.544 185.591 159.161 185.385 160.086C185.18 160.909 184.563 161.423 183.536 161.011C182.816 160.703 182.097 160.086 181.789 159.572L181.069 160.909C181.583 161.526 182.302 162.142 183.227 162.451L183.022 163.479L184.152 163.89L184.46 162.656C185.694 162.656 186.516 161.834 186.824 160.497Z" fill="black"/>
<path d="M186.002 160.189C186.31 158.647 185.796 157.516 184.563 156.282C183.638 155.356 183.227 154.842 183.433 153.917C183.638 153.197 184.255 152.683 185.077 153.094C185.796 153.403 186.31 153.917 186.516 154.328L187.132 153.094C186.824 152.683 186.31 152.272 185.796 151.861L186.002 150.832L184.871 150.318L184.666 151.449C183.33 151.244 182.302 152.169 181.994 153.506C181.686 154.739 182.2 156.076 183.433 157.207C184.358 158.132 184.666 158.749 184.46 159.675C184.255 160.497 183.638 161.011 182.508 160.6C181.788 160.292 181.069 159.675 180.761 159.161L180.042 160.497C180.555 161.114 181.275 161.731 182.2 162.039L181.994 163.068L183.124 163.479L183.433 162.245C184.871 162.348 185.693 161.525 186.002 160.189Z" fill="#F1F1F1"/>
<path d="M147.054 129.652C154.351 130.68 160.825 136.027 163.394 143.738C166.785 153.814 162.777 165.021 153.837 169.442C153.117 169.854 152.295 170.059 151.576 170.368C153.94 170.265 156.303 169.751 158.564 168.62C167.196 164.302 171.101 153.3 167.813 143.43C164.627 134.176 155.892 128.213 147.054 129.652Z" fill="black"/>
<path opacity="0.5" d="M133.387 157.515C128.865 146 134.209 133.559 144.691 130.166C145.513 129.96 146.335 129.755 147.054 129.652C144.588 129.344 141.916 129.446 139.347 130.269C128.454 133.662 122.905 146.411 127.529 158.235C131.743 168.722 142.225 173.555 151.473 170.47C144.074 170.676 136.675 165.946 133.387 157.515Z" fill="#1566C6"/>
<path d="M163.394 143.841C160.722 136.13 154.351 130.68 147.054 129.755C146.232 129.858 145.41 130.063 144.691 130.269C134.312 133.559 128.865 146.103 133.387 157.618C136.675 165.947 144.074 170.779 151.576 170.573C152.295 170.265 153.117 170.059 153.837 169.648C162.777 165.124 166.785 153.814 163.394 143.841Z" fill="#1566C6"/>
<path d="M154.659 152.272C153.837 150.01 152.193 149.187 149.418 149.085C147.26 149.085 146.232 148.776 145.719 147.439C145.307 146.206 145.821 144.972 147.363 144.355C148.699 143.841 149.932 143.944 150.548 144.149L150.446 141.785C149.624 141.579 148.596 141.579 147.363 141.887L146.746 140.242L144.691 140.962L145.307 142.71C143.149 144.047 142.43 146.514 143.252 148.673C143.972 150.627 145.821 151.655 148.699 151.655C150.857 151.655 151.884 152.066 152.295 153.403C152.706 154.637 152.295 156.076 150.446 156.796C149.212 157.31 147.568 157.31 146.643 157.104L146.746 159.572C147.979 159.778 149.521 159.572 151.062 158.852L151.679 160.394L153.631 159.469L153.015 157.618C154.864 156.385 155.378 154.328 154.659 152.272Z" fill="black"/>
<path d="M153.323 152.786C152.501 150.524 150.754 149.702 147.979 149.599C145.821 149.599 144.691 149.29 144.28 147.954C143.869 146.72 144.383 145.383 145.924 144.869C147.26 144.355 148.493 144.458 149.213 144.664L149.11 142.299C148.288 142.093 147.157 142.093 146.027 142.402L145.41 140.756L143.355 141.476L143.972 143.224C141.814 144.664 141.094 147.028 141.916 149.187C142.636 151.141 144.485 152.169 147.466 152.169C149.624 152.169 150.651 152.58 151.165 153.917C151.679 155.151 151.165 156.59 149.315 157.413C147.979 157.927 146.438 158.03 145.513 157.721L145.719 160.189C146.952 160.395 148.596 160.189 150.137 159.469L150.754 161.011L152.707 160.086L151.987 158.235C153.529 157.002 154.042 154.945 153.323 152.786Z" fill="#F1F1F1"/>
<path d="M174.287 141.168C174.184 141.168 174.081 141.168 173.978 141.168C171.82 140.962 170.073 138.7 170.073 136.13C170.073 134.69 170.587 133.456 171.512 132.634C172.232 132.017 173.156 131.709 174.081 131.811C176.239 132.12 177.884 134.279 177.884 136.849C177.884 138.186 177.37 139.523 176.445 140.242C175.828 140.859 175.109 141.168 174.287 141.168ZM173.67 132.84C173.156 132.84 172.643 133.045 172.129 133.456C171.409 134.073 170.998 135.101 170.998 136.13C170.998 138.186 172.334 140.037 173.978 140.14C174.595 140.242 175.212 139.934 175.725 139.523C176.445 138.906 176.753 137.98 176.753 136.849C176.753 134.793 175.417 133.045 173.876 132.84C173.876 132.84 173.773 132.84 173.67 132.84Z" fill="#FF7C00"/>
<path d="M148.288 187.435C147.465 187.435 146.746 187.127 146.232 186.613C145.513 185.996 145.102 184.968 145.102 183.94C145.102 181.883 146.643 180.032 148.596 179.827C149.521 179.724 150.343 180.032 150.959 180.649C151.679 181.266 152.09 182.294 152.09 183.323C152.09 185.379 150.548 187.23 148.699 187.435C148.493 187.435 148.39 187.435 148.288 187.435ZM148.801 180.855C148.699 180.855 148.699 180.855 148.596 180.855C147.157 180.958 146.027 182.397 146.027 183.94C146.027 184.762 146.335 185.379 146.849 185.893C147.26 186.304 147.877 186.51 148.493 186.407C149.829 186.202 150.959 184.865 150.959 183.323C150.959 182.603 150.651 181.883 150.137 181.369C149.829 181.061 149.315 180.855 148.801 180.855Z" fill="#FF7C00"/>
<path d="M448.048 80.2999L426.262 100.452H400.777L433.764 69.9154C437.361 72.2802 440.958 74.8506 444.554 77.5238C445.787 78.552 446.918 79.3746 448.048 80.2999Z" fill="#050303"/>
<path d="M461.819 93.152L427.085 125.231L426.365 125.848V100.349L448.151 80.197C453.186 84.5153 457.811 88.8336 461.819 93.152Z" fill="#1566C6"/>
<path opacity="0.5" d="M426.262 125.951L403.346 122.763L400.88 100.452H426.262V125.951Z" fill="#1566C6"/>
<path d="M426.776 99.4237H425.749V100.452H426.776V99.4237Z" fill="white"/>
<path d="M426.776 97.4702H425.749V95.5167H426.776V97.4702ZM426.776 93.5632H425.749V91.6097H426.776V93.5632ZM426.776 89.6562H425.749V87.7026H426.776V89.6562ZM426.776 85.7491H425.749V83.7956H426.776V85.7491ZM426.776 81.8421H425.749V79.8885H426.776V81.8421Z" fill="white"/>
<path d="M426.776 76.9069H425.749V77.935H426.776V76.9069Z" fill="white"/>
<path d="M427.29 99.9379H426.262V100.966H427.29V99.9379Z" fill="white"/>
<path d="M450.926 100.966H448.973V99.9379H450.926V100.966ZM446.918 100.966H444.965V99.9379H446.918V100.966ZM443.013 100.966H441.06V99.9379H443.013V100.966ZM439.108 100.966H437.155V99.9379H439.108V100.966ZM435.203 100.966H433.25V99.9379H435.203V100.966ZM431.195 100.966H429.243V99.9379H431.195V100.966Z" fill="white"/>
<path d="M453.906 99.9379H452.878V100.966H453.906V99.9379Z" fill="white"/>
<path d="M403.49 121.519L402.746 122.228L403.455 122.973L404.199 122.264L403.49 121.519Z" fill="white"/>
<path d="M405.607 120.81L404.888 120.09L406.326 118.753L407.046 119.473L405.607 120.81ZM408.484 118.137L407.765 117.417L409.204 116.08L409.923 116.8L408.484 118.137ZM411.464 115.361L410.745 114.641L412.184 113.304L412.903 114.024L411.464 115.361ZM414.342 112.584L413.622 111.865L415.061 110.528L415.78 111.248L414.342 112.584ZM417.219 109.808L416.5 109.089L417.939 107.752L418.658 108.472L417.219 109.808ZM420.097 107.032L419.377 106.313L420.816 104.976L421.535 105.696L420.097 107.032ZM422.974 104.256L422.255 103.537L423.693 102.2L424.413 102.92L422.974 104.256Z" fill="white"/>
<path d="M425.945 100.034L425.2 100.743L425.909 101.488L426.653 100.779L425.945 100.034Z" fill="white"/>
<path d="M426.776 57.4745H425.749V77.0097H426.776V57.4745Z" fill="#FF7C00"/>
<path d="M470.04 99.9379H453.906V100.966H470.04V99.9379Z" fill="#FF7C00"/>
<path d="M402.701 122.247L391.075 133.439L391.788 134.18L403.414 122.988L402.701 122.247Z" fill="#FF7C00"/>
<path d="M426.262 102.405C427.341 102.405 428.215 101.531 428.215 100.452C428.215 99.373 427.341 98.4984 426.262 98.4984C425.184 98.4984 424.31 99.373 424.31 100.452C424.31 101.531 425.184 102.405 426.262 102.405Z" fill="white"/>
<path d="M470.965 98.0872L472.712 99.8351C473.123 100.246 473.123 100.863 472.712 101.275L470.965 103.022C470.656 103.331 470.04 103.125 470.04 102.611V98.4985C470.04 97.9844 470.656 97.6759 470.965 98.0872Z" fill="#050303"/>
<path d="M423.899 56.8576L425.646 55.1097C426.057 54.6985 426.673 54.6985 427.085 55.1097L428.832 56.8576C429.14 57.1661 428.934 57.783 428.42 57.783H424.31C423.796 57.6801 423.591 57.1661 423.899 56.8576Z" fill="#050303"/>
<path d="M392.762 136.027H390.398C389.884 136.027 389.37 135.615 389.37 134.998V132.634C389.37 132.12 389.987 131.914 390.295 132.222L393.173 135.101C393.481 135.513 393.173 136.027 392.762 136.027Z" fill="#050303"/>
<path d="M453.085 109.088L455.056 112.451L457.027 109.088H458.483L455.827 113.201L458.483 117.314H457.027L455.056 114.122L453.085 117.314H451.629L454.242 113.201L451.629 109.088H453.085ZM463.161 116.564V109.495H464.361V116.564H463.161ZM460.227 113.63V112.43H467.296V113.63H460.227ZM470.703 120.399C470.489 120.399 470.298 120.381 470.13 120.345C469.962 120.313 469.846 120.281 469.782 120.249L470.103 119.135C470.41 119.213 470.682 119.242 470.917 119.221C471.153 119.199 471.362 119.094 471.544 118.905C471.73 118.719 471.899 118.417 472.053 118L472.288 117.357L469.246 109.088H470.617L472.888 115.643H472.974L475.244 109.088H476.615L473.124 118.514C472.967 118.939 472.772 119.29 472.54 119.569C472.308 119.851 472.038 120.06 471.731 120.195C471.428 120.331 471.085 120.399 470.703 120.399ZM478.194 112.023V110.866H484.792V112.023H478.194ZM478.194 115.193V114.037H484.792V115.193H478.194ZM489.27 114.229V114.165C489.277 113.483 489.349 112.941 489.484 112.537C489.62 112.134 489.813 111.807 490.063 111.557C490.313 111.307 490.613 111.077 490.962 110.866C491.173 110.738 491.362 110.586 491.53 110.411C491.698 110.233 491.83 110.027 491.926 109.795C492.026 109.563 492.076 109.306 492.076 109.024C492.076 108.674 491.994 108.371 491.83 108.114C491.666 107.857 491.446 107.658 491.171 107.519C490.896 107.38 490.591 107.31 490.255 107.31C489.963 107.31 489.681 107.371 489.409 107.492C489.138 107.614 488.911 107.805 488.729 108.065C488.547 108.326 488.442 108.667 488.413 109.088H487.064C487.092 108.481 487.249 107.962 487.535 107.53C487.824 107.098 488.204 106.768 488.676 106.539C489.151 106.311 489.677 106.196 490.255 106.196C490.884 106.196 491.43 106.321 491.894 106.571C492.362 106.821 492.723 107.164 492.976 107.599C493.233 108.035 493.362 108.531 493.362 109.088C493.362 109.481 493.301 109.836 493.18 110.154C493.062 110.472 492.89 110.756 492.665 111.005C492.444 111.255 492.176 111.477 491.862 111.67C491.548 111.866 491.296 112.073 491.107 112.291C490.918 112.505 490.78 112.76 490.695 113.057C490.609 113.353 490.563 113.722 490.555 114.165V114.229H489.27ZM489.956 117.4C489.691 117.4 489.465 117.305 489.275 117.116C489.086 116.927 488.992 116.7 488.992 116.436C488.992 116.172 489.086 115.945 489.275 115.756C489.465 115.566 489.691 115.472 489.956 115.472C490.22 115.472 490.447 115.566 490.636 115.756C490.825 115.945 490.92 116.172 490.92 116.436C490.92 116.611 490.875 116.771 490.786 116.918C490.7 117.064 490.584 117.182 490.438 117.271C490.295 117.357 490.134 117.4 489.956 117.4Z" fill="black"/>
<path d="M389.371 185.79C389.062 184.967 388.138 184.453 387.316 184.761H387.213C386.493 184.967 385.774 184.967 385.157 184.556C384.541 184.247 384.027 183.63 383.822 183.014L383.513 182.191C383.411 181.78 383.102 181.471 382.691 181.266C382.28 181.06 381.869 181.06 381.458 181.163L381.047 181.266C380.328 181.471 379.608 181.471 378.992 181.06C378.375 180.752 377.861 180.135 377.656 179.518L377.45 179.004C377.142 178.181 376.217 177.667 375.395 177.976L374.47 178.284C373.031 178.695 371.593 177.976 371.079 176.536L370.976 176.228C370.668 175.405 369.743 174.891 368.921 175.199C368.202 175.405 367.482 175.405 366.866 174.994C366.249 174.685 365.735 174.069 365.53 173.452L365.427 173.246C365.324 172.835 365.016 172.526 364.605 172.321C364.194 172.115 363.783 172.115 363.372 172.218L363.063 171.19C363.783 170.984 364.502 170.984 365.119 171.395C365.735 171.704 366.249 172.321 366.455 172.938L366.557 173.143C366.66 173.554 366.968 173.863 367.379 174.069C367.79 174.274 368.202 174.274 368.613 174.171C370.051 173.76 371.49 174.48 372.004 175.919L372.107 176.228C372.209 176.639 372.518 176.947 372.929 177.153C373.34 177.359 373.751 177.359 374.162 177.256L375.087 176.947C376.525 176.536 377.964 177.256 378.478 178.695L378.683 179.209C378.786 179.621 379.094 179.929 379.505 180.135C379.917 180.34 380.328 180.34 380.739 180.238L381.15 180.135C381.869 179.929 382.588 179.929 383.205 180.34C383.822 180.649 384.335 181.266 384.541 181.883L384.849 182.705C384.952 183.116 385.26 183.425 385.671 183.63C386.082 183.836 386.493 183.836 386.904 183.733H387.007C387.727 183.528 388.446 183.528 389.063 183.939C389.679 184.247 390.193 184.864 390.398 185.481L389.371 185.79Z" fill="#020202"/>
<path d="M396.359 194.632C396.256 194.221 395.948 193.913 395.536 193.707C395.125 193.501 394.714 193.501 394.303 193.604H394.201C392.762 194.015 391.323 193.296 390.809 191.856L390.501 191.034C390.193 190.211 389.268 189.697 388.446 190.005L388.035 190.108C387.315 190.314 386.596 190.314 385.979 189.903C385.363 189.594 384.849 188.977 384.644 188.36L384.438 187.846C384.13 187.024 383.205 186.51 382.383 186.818L381.458 187.127C380.019 187.538 378.58 186.818 378.067 185.379L377.964 185.07C377.861 184.659 377.553 184.351 377.142 184.145C376.731 183.939 376.32 183.939 375.909 184.042C375.189 184.248 374.47 184.248 373.853 183.836C373.237 183.528 372.723 182.911 372.517 182.294L372.415 182.089C372.106 181.266 371.182 180.752 370.359 181.06L370.051 180.032C371.49 179.621 372.929 180.341 373.442 181.78L373.545 181.986C373.648 182.397 373.956 182.705 374.367 182.911C374.778 183.117 375.189 183.117 375.6 183.014C376.32 182.808 377.039 182.808 377.656 183.22C378.272 183.528 378.786 184.145 378.992 184.762L379.094 185.07C379.403 185.893 380.327 186.407 381.15 186.098L382.074 185.79C383.513 185.379 384.952 186.098 385.466 187.538L385.671 188.052C385.774 188.463 386.082 188.772 386.493 188.977C386.904 189.183 387.315 189.183 387.726 189.08L388.138 188.977C389.576 188.566 391.015 189.286 391.529 190.725L391.837 191.548C391.94 191.959 392.248 192.267 392.659 192.473C393.07 192.679 393.481 192.679 393.892 192.576H393.995C394.714 192.37 395.434 192.37 396.05 192.782C396.667 193.09 397.181 193.707 397.386 194.324L396.359 194.632Z" fill="#020202"/>
<path d="M58.3698 202.755C57.9587 202.755 57.5477 202.652 57.1366 202.446L57.6504 201.521C58.0615 201.727 58.5753 201.829 58.8836 201.624C59.1919 201.418 59.5002 201.11 59.5002 200.493V200.184C59.6029 199.362 60.014 198.642 60.6306 198.334C61.2471 198.025 62.0692 198.025 62.7886 198.436C63.1996 198.642 63.7135 198.745 64.0217 198.539C64.33 198.334 64.6383 198.025 64.6383 197.511L64.7411 197.1C64.8439 196.277 65.2549 195.558 65.8715 195.249C66.4881 194.941 67.3102 194.941 68.0295 195.352L69.0571 195.866C69.571 196.072 69.982 196.174 70.2903 195.969C70.5986 195.763 70.9069 195.455 70.9069 194.838L71.0097 194.118C71.1124 193.296 71.5235 192.576 72.14 192.267C72.7566 191.959 73.5787 191.959 74.2981 192.37L74.7091 192.576C75.1202 192.781 75.634 192.884 75.9423 192.679C76.2506 192.473 76.5589 192.165 76.5589 191.65L76.6616 190.622C76.7644 189.8 77.1755 189.08 77.792 188.772C78.4086 188.463 79.2307 188.463 79.9501 188.874L80.1556 188.977C80.5666 189.183 81.0805 189.286 81.3888 189.08C81.697 188.874 81.9026 188.566 82.0053 188.052L83.033 188.155C82.9302 188.977 82.5191 189.697 81.9026 190.005C81.286 190.314 80.4639 190.314 79.7445 189.903L79.539 189.8C79.128 189.594 78.6141 189.491 78.3059 189.697C77.9976 189.903 77.6893 190.211 77.6893 190.828L77.5865 191.856C77.4837 192.679 77.0727 193.398 76.4561 193.707C75.8395 194.015 75.0174 194.015 74.2981 193.604L73.887 193.398C73.476 193.193 72.9622 193.09 72.6539 193.296C72.3456 193.501 72.0373 193.81 72.0373 194.427L71.9345 195.146C71.8318 195.969 71.4207 196.689 70.8041 196.997C70.1875 197.305 69.3654 197.305 68.6461 196.894L67.6185 196.38C67.2074 196.174 66.6936 196.072 66.3853 196.277C66.077 196.483 65.8715 196.791 65.7687 197.305L65.666 197.717C65.5632 198.539 65.1521 199.259 64.5356 199.567C63.919 199.876 63.0969 199.876 62.3775 199.465C61.9665 199.259 61.4527 199.156 61.1444 199.362C60.8361 199.567 60.5278 199.876 60.5278 200.39V200.698C60.425 201.521 60.014 202.241 59.3974 202.549C59.0891 202.755 58.7808 202.755 58.3698 202.755Z" fill="#020202"/>
<path d="M64.2273 192.473C63.8162 192.473 63.4052 192.37 62.9941 192.165L63.508 191.239C63.919 191.445 64.4328 191.548 64.7411 191.342C65.0494 191.136 65.2549 190.828 65.3577 190.314V190.005C65.4605 189.183 65.8715 188.463 66.4881 188.155C67.1047 187.846 67.9268 187.846 68.6461 188.258C69.0572 188.463 69.571 188.566 69.8793 188.36C70.1876 188.155 70.4959 187.846 70.4959 187.332L70.5986 186.921C70.7014 186.098 71.1124 185.379 71.729 185.07C72.3456 184.762 73.1677 184.762 73.8871 185.173L74.9147 185.687C75.3257 185.893 75.8396 185.996 76.1479 185.79C76.4561 185.584 76.6617 185.276 76.7644 184.762L76.8672 184.042C76.97 183.22 77.381 182.5 77.9976 182.191C78.6142 181.883 79.4363 181.883 80.1556 182.294L80.5667 182.5C80.9777 182.705 81.4915 182.808 81.7998 182.603C82.1081 182.397 82.4164 182.089 82.4164 181.472L82.5192 180.443C82.6219 179.621 83.033 178.901 83.6496 178.593C84.2662 178.284 85.0883 178.284 85.8076 178.696L86.0131 178.798C86.4242 179.004 86.938 179.107 87.2463 178.901C87.5546 178.696 87.7601 178.387 87.8629 177.873L88.8905 177.976C88.7877 178.798 88.3767 179.518 87.7601 179.827C87.1435 180.135 86.3214 180.135 85.6021 179.724L85.3966 179.621C84.9855 179.415 84.4717 179.312 84.1634 179.518C83.8551 179.724 83.6496 180.032 83.5468 180.546L83.444 181.574C83.3413 182.397 82.9302 183.117 82.3137 183.425C81.6971 183.734 80.875 183.734 80.1556 183.322L79.7446 183.117C79.3335 182.911 78.8197 182.808 78.5114 183.014C78.2031 183.22 77.9976 183.528 77.8948 184.042L77.7921 184.762C77.6893 185.584 77.2782 186.304 76.6617 186.612C76.0451 186.921 75.223 186.921 74.5036 186.51L73.476 185.996C73.0649 185.79 72.5511 185.687 72.2428 185.893C71.9346 186.098 71.6263 186.407 71.6263 187.024L71.5235 187.435C71.4207 188.258 71.0097 188.977 70.3931 189.286C69.7765 189.594 68.9544 189.594 68.2351 189.183C67.824 188.977 67.3102 188.874 67.0019 189.08C66.6936 189.286 66.3853 189.594 66.3853 190.211V190.52C66.2826 191.342 65.8715 192.062 65.2549 192.37C64.8439 192.37 64.5356 192.473 64.2273 192.473Z" fill="#020202"/>
<path d="M157.845 41.7435C157.742 41.7435 157.639 41.7435 157.434 41.7435C156.714 41.6407 156.098 41.1266 155.789 40.304L155.276 39.2759C155.07 38.7618 154.762 38.4533 154.351 38.4533C153.94 38.3505 153.529 38.5562 153.22 38.8646L152.912 39.173C152.296 39.79 151.576 40.0984 150.857 39.8928C150.137 39.79 149.521 39.2759 149.213 38.4533C149.007 37.9392 148.699 37.6308 148.288 37.6308C147.877 37.528 147.466 37.7336 147.157 38.0421L146.952 38.2477C146.335 38.8646 145.616 39.1731 144.897 38.9674C144.177 38.8646 143.561 38.3505 143.252 37.528L144.177 37.1167C144.383 37.6308 144.691 37.9392 145.102 37.9392C145.513 38.0421 145.924 37.8364 146.232 37.528L146.438 37.3223C147.055 36.7054 147.774 36.397 148.493 36.6026C149.213 36.7054 149.829 37.2195 150.137 38.0421C150.343 38.5561 150.651 38.8646 151.062 38.8646C151.473 38.9674 151.884 38.7618 152.193 38.4533L152.501 38.1449C153.118 37.528 153.837 37.2195 154.556 37.4252C155.276 37.528 155.892 38.0421 156.201 38.8646L156.714 39.8928C156.92 40.4069 157.228 40.7153 157.639 40.7153C158.05 40.8181 158.461 40.6125 158.77 40.304L159.283 39.7899L160.003 40.5097L159.489 41.0238C158.975 41.435 158.461 41.7435 157.845 41.7435Z" fill="#020202"/>
<path d="M582.874 205.736H582.771C582.052 205.736 581.435 205.222 580.922 204.503L580.305 203.474C579.997 203.063 579.688 202.755 579.277 202.755C578.866 202.755 578.455 202.96 578.147 203.372L577.839 203.68C577.325 204.4 576.606 204.708 575.886 204.708C575.167 204.708 574.55 204.194 574.036 203.474C573.728 203.063 573.42 202.755 573.009 202.755C572.598 202.755 572.187 202.96 571.878 203.372L571.673 203.577C571.159 204.297 570.44 204.605 569.72 204.605C569.001 204.605 568.384 204.091 567.871 203.372L568.796 202.858C569.104 203.269 569.412 203.577 569.823 203.577C570.234 203.577 570.645 203.372 570.954 202.96L571.159 202.755C571.673 202.035 572.392 201.727 573.112 201.727C573.831 201.727 574.447 202.241 574.961 202.96C575.27 203.372 575.578 203.68 575.989 203.68C576.4 203.68 576.811 203.474 577.119 203.063L577.428 202.755C577.941 202.035 578.661 201.727 579.38 201.727C580.099 201.727 580.716 202.241 581.23 202.96L581.846 203.989C582.155 204.4 582.463 204.708 582.874 204.708C583.285 204.708 583.696 204.503 584.004 204.091L584.416 203.577L585.238 204.194L584.827 204.708C584.21 205.428 583.593 205.736 582.874 205.736Z" fill="#020202"/>
<path d="M576.092 200.082H575.989C575.27 200.082 574.653 199.567 574.139 198.848L573.523 197.82C573.214 197.408 572.906 197.1 572.495 197.1C572.084 197.1 571.673 197.305 571.365 197.717L571.056 198.025C570.543 198.745 569.823 199.053 569.104 199.053C568.384 199.053 567.768 198.539 567.254 197.82C566.946 197.408 566.637 197.1 566.226 197.1C565.815 197.1 565.404 197.305 565.096 197.717L564.891 197.922C564.377 198.642 563.657 198.951 562.938 198.951C562.219 198.951 561.602 198.436 561.088 197.717L562.013 197.203C562.321 197.614 562.63 197.922 563.041 197.922C563.452 197.922 563.863 197.717 564.171 197.305L564.377 197.1C564.891 196.38 565.61 196.072 566.329 196.072C567.049 196.072 567.665 196.586 568.179 197.305C568.487 197.717 568.796 198.025 569.207 198.025C569.618 198.025 570.029 197.82 570.337 197.408L570.645 197.1C571.159 196.38 571.878 196.072 572.598 196.072C573.317 196.072 573.934 196.586 574.447 197.305L575.064 198.334C575.372 198.745 575.681 199.053 576.092 199.053C576.503 199.053 576.914 198.848 577.222 198.436L577.633 197.922L578.455 198.539L578.044 199.053C577.428 199.67 576.811 200.082 576.092 200.082Z" fill="#020202"/>
<path d="M576.194 347.213H152.09V348.241H576.194V347.213Z" fill="#070707"/>
<path d="M141.197 347.213H-0.00012207V348.241H141.197V347.213Z" fill="#070707"/>
<path d="M533.856 327.986H450.617C449.693 327.986 448.768 327.677 448.151 326.958C447.329 326.032 447.123 324.799 447.432 323.668L466.032 270.408C466.443 269.072 467.676 268.249 469.115 268.249H552.867C553.792 268.249 554.306 269.072 554.1 269.894L533.856 327.986ZM469.115 269.38C468.19 269.38 467.368 269.997 467.06 270.82L448.459 324.079C448.254 324.799 448.357 325.518 448.768 326.032C449.179 326.546 449.795 326.958 450.515 326.958H533.136L553.278 269.277H469.115V269.38Z" fill="#070707"/>
<path d="M449.795 327.986H534.678C535.808 327.986 536.836 327.266 537.247 326.135L555.95 271.848C556.567 270.1 555.231 268.249 553.381 268.249H470.451L449.795 327.986Z" fill="#001129"/>
<path d="M520.086 348.138H494.292L490.49 303.001L491.517 302.899L495.217 347.11H518.955L515.358 303.001L516.386 302.899L520.086 348.138Z" fill="#070707"/>
<path d="M503.438 307.731C506.446 307.731 508.884 305.107 508.884 301.87C508.884 298.634 506.446 296.01 503.438 296.01C500.43 296.01 497.991 298.634 497.991 301.87C497.991 305.107 500.43 307.731 503.438 307.731Z" fill="white"/>
<path d="M516.364 302.878L515.34 302.963L517.391 327.553L518.415 327.468L516.364 302.878Z" fill="white"/>
<path d="M491.499 303.497L490.475 303.583L492.526 328.172L493.55 328.087L491.499 303.497Z" fill="white"/>
<path d="M412.595 329.22L405.299 350.4L403.346 349.989C402.833 349.886 402.319 349.886 401.702 349.886C400.366 349.886 399.03 350.194 397.797 350.811C396.461 351.428 395.023 351.84 393.584 351.737L386.596 351.531C385.466 351.531 384.335 351.634 383.205 352.045L378.169 353.999C376.936 354.41 375.703 354.616 374.47 354.513L370.257 354.204C369.023 354.101 367.688 354.307 366.557 354.718L362.344 356.363C361.111 356.878 359.775 356.98 358.542 356.878L354.739 356.569C353.506 356.466 352.17 356.569 351.04 357.083L346.107 358.934C344.874 359.345 343.435 359.551 342.099 359.345L340.352 359.139C338.811 358.934 337.27 359.14 335.934 359.756L333.262 360.887C332.542 361.196 331.823 361.401 331.104 361.504L326.377 362.224C314.251 363.972 305.31 351.223 311.065 340.427L336.55 292.411C339.428 287.065 344.257 283.261 349.909 281.821C352.479 281.101 355.253 280.896 358.028 281.307C358.131 281.307 358.233 281.307 358.233 281.307L367.585 282.541L369.229 278.017L388.035 279.662L387.932 283.363L392.556 282.541C394.612 282.232 396.564 282.232 398.414 282.644C400.264 283.055 402.01 283.775 403.552 284.803C408.176 287.887 411.156 293.44 410.334 299.609L406.429 329.734L412.595 329.22Z" fill="#1566C6"/>
<path d="M336.448 339.09L335.934 338.165L337.783 337.137C339.428 336.211 341.483 335.903 343.333 336.314L343.949 336.417C345.182 336.725 346.518 336.623 347.752 336.211L352.684 334.463C353.712 334.155 354.739 333.949 355.767 334.052L363.063 334.463C363.988 334.463 365.016 334.361 365.838 334.052L370.462 332.407C371.387 332.099 372.312 331.893 373.34 331.893C373.648 331.893 373.853 331.893 374.059 331.893L378.478 332.407C379.505 332.51 380.533 332.407 381.561 332.099L386.288 330.454C387.521 330.042 388.857 329.94 390.09 330.042L392.659 330.454C393.07 330.556 393.378 330.556 393.687 330.556C394.817 330.556 395.948 330.248 396.975 329.734C398.517 328.911 400.264 328.603 401.908 328.809L406.429 329.425L406.327 330.454L401.805 329.837C400.366 329.631 398.825 329.94 397.489 330.659C396.256 331.276 395.023 331.687 393.687 331.687C393.276 331.687 392.967 331.687 392.556 331.585L389.987 331.173C388.857 330.968 387.726 331.173 386.699 331.482L381.972 333.127C380.841 333.538 379.608 333.641 378.478 333.538L374.059 333.024C373.853 333.024 373.648 333.024 373.545 333.024C372.62 333.024 371.798 333.127 370.976 333.435L366.352 335.08C365.324 335.492 364.296 335.594 363.166 335.594L355.87 335.183C354.945 335.183 354.02 335.286 353.198 335.594L348.265 337.342C346.929 337.856 345.388 337.959 343.949 337.651L343.333 337.548C341.688 337.24 339.941 337.445 338.503 338.268L336.448 339.09Z" fill="white"/>
<path d="M401.447 304.426L396.622 329.986L397.631 330.177L402.457 304.617L401.447 304.426Z" fill="white"/>
<path d="M354.143 309.619L343.709 336.889L344.669 337.256L355.102 309.987L354.143 309.619Z" fill="white"/>
<path d="M387.677 282.98L377.564 284.807L377.746 285.819L387.859 283.992L387.677 282.98Z" fill="white"/>
<path d="M410.769 340.563C412.866 334.739 413.786 329.738 412.825 329.392C411.864 329.045 409.385 333.485 407.289 339.308C405.192 345.131 404.272 350.132 405.233 350.479C406.194 350.825 408.673 346.386 410.769 340.563Z" fill="#140F1F"/>
<path d="M398.311 267.427C398.208 267.941 398.106 268.352 398.003 268.866C396.77 272.979 392.967 275.961 388.343 276.063L387.829 279.662L369.024 278.017L376.423 256.014C378.067 251.284 382.794 248.406 387.726 249.331L390.707 249.845L391.632 250.051C391.632 250.051 391.632 250.051 391.734 250.051C392.865 250.359 393.892 250.873 394.714 251.593C396.05 252.724 396.872 254.266 397.181 256.117L398.414 264.239C398.517 265.37 398.517 266.399 398.311 267.427Z" fill="#FFB000"/>
<path d="M394.2 269.072C395.023 269.997 396.256 270.408 397.489 269.894C397.592 269.894 397.592 269.586 397.592 269.483C397.592 269.483 397.592 269.072 397.489 269.072C396.461 269.483 395.125 269.277 394.303 268.455C394.2 268.352 394.2 268.661 394.2 268.661C394.098 268.763 394.098 268.969 394.2 269.072Z" fill="#001129"/>
<path d="M387.932 276.063H383.616L387.932 278.223V276.063Z" fill="#001129"/>
<path d="M377.142 264.342C376.936 263.52 377.245 262.697 377.964 262.286C378.889 261.669 380.225 262.08 380.636 263.211C380.944 264.137 382.074 264.445 382.794 263.931L384.746 262.697C386.699 266.193 397.078 265.782 397.694 260.744C401.702 265.679 413.109 262.08 411.567 257.042C417.425 256.014 424.105 232.263 397.694 245.115C397.078 240.489 385.671 240.077 383.821 246.863C380.841 243.059 372.415 247.377 375.086 253.546C364.296 251.285 361.008 267.427 371.798 269.586L375.292 268.044C376.833 267.53 377.656 265.885 377.142 264.342Z" fill="#001129"/>
<path d="M375.395 253.546C374.264 252.415 372.62 251.901 370.976 252.004C369.537 252.21 368.099 252.93 367.276 254.266C365.735 256.734 366.249 260.23 367.996 262.389C368.099 262.492 368.099 262.08 368.099 262.08C368.099 261.875 368.099 261.669 367.996 261.566C367.174 260.435 366.557 259.099 366.557 257.762C366.557 256.425 367.174 255.089 368.201 254.266C370.257 252.415 373.134 252.827 375.395 253.958C375.395 253.958 375.497 253.546 375.395 253.546Z" fill="#001129"/>
<path d="M397.489 260.435C398.311 264.342 403.655 265.679 406.84 264.445C408.485 263.828 409.82 262.492 410.334 260.847C410.848 259.304 410.745 257.454 409.923 256.117C409.923 256.117 409.821 256.631 409.923 256.734C410.848 258.482 410.54 260.332 409.204 261.772C408.176 262.903 406.84 263.52 405.299 263.725C402.524 264.137 398.414 262.903 397.489 259.921C397.489 259.818 397.489 260.332 397.489 260.435Z" fill="#001129"/>
<path d="M384.746 262.286V262.389C384.746 262.389 384.746 262.389 384.746 262.492C384.746 262.594 384.643 262.594 384.643 262.697C384.541 262.903 384.438 263.006 384.335 263.108C384.13 263.417 383.821 263.623 383.513 263.931V264.137C383.513 264.239 383.513 264.342 383.513 264.445C383.513 264.445 383.513 264.856 383.616 264.754C383.924 264.548 384.232 264.239 384.541 263.931C384.849 263.52 385.055 263.108 385.055 262.594C384.849 262.594 384.849 262.183 384.746 262.286Z" fill="#001129"/>
<path d="M350.115 287.168C350.115 287.476 349.91 287.785 349.704 287.99C349.498 288.196 349.19 288.401 348.985 288.504C348.368 288.71 347.649 288.504 347.238 288.093C347.032 287.887 346.827 287.579 346.827 287.27C346.827 286.962 346.929 286.654 347.135 286.448C347.546 285.934 348.163 285.625 348.779 285.728C349.087 285.831 349.396 285.934 349.704 286.139C349.91 286.448 350.115 286.756 350.115 287.168V287.373C350.218 287.373 350.218 287.168 350.115 287.168C350.115 286.756 350.115 286.345 349.91 286.037C349.704 285.728 349.396 285.523 349.087 285.317C348.368 285.008 347.546 285.214 347.032 285.934C346.827 286.242 346.724 286.654 346.724 286.962C346.724 287.373 346.724 287.784 346.929 288.196C347.238 288.915 348.06 289.327 348.779 289.121C349.19 289.018 349.601 288.813 349.807 288.504C350.115 288.093 350.218 287.579 350.115 287.168C350.218 287.168 350.218 286.962 350.115 286.962C350.115 286.859 350.115 287.168 350.115 287.168Z" fill="white"/>
<path d="M328.124 331.79C328.124 332.099 327.918 332.407 327.713 332.613C327.507 332.818 327.199 333.024 326.993 333.127C326.377 333.332 325.657 333.127 325.246 332.716C325.041 332.51 324.835 332.201 324.835 331.893C324.835 331.585 324.938 331.276 325.144 331.07C325.555 330.556 326.171 330.248 326.788 330.351C327.096 330.454 327.404 330.556 327.713 330.762C327.918 331.07 328.124 331.482 328.124 331.79V331.996C328.226 332.099 328.226 331.79 328.124 331.79C328.124 331.379 328.124 330.968 327.918 330.659C327.713 330.351 327.404 330.145 327.096 329.939C326.377 329.631 325.555 329.837 325.041 330.556C324.835 330.865 324.733 331.276 324.733 331.585C324.733 331.996 324.733 332.407 324.938 332.818C325.246 333.538 326.068 333.949 326.788 333.744C327.199 333.641 327.61 333.435 327.815 333.127C328.124 332.716 328.226 332.304 328.124 331.79C328.226 331.79 328.226 331.585 328.124 331.585V331.79Z" fill="white"/>
<path d="M350.115 357.083C350.115 357.392 349.91 357.7 349.704 357.906C349.498 358.111 349.19 358.317 348.985 358.42C348.368 358.625 347.649 358.42 347.238 358.008C347.032 357.803 346.827 357.494 346.827 357.186C346.827 356.877 346.929 356.569 347.135 356.363C347.546 355.849 348.163 355.541 348.779 355.644C349.087 355.747 349.396 355.849 349.704 356.055C349.91 356.363 350.115 356.775 350.115 357.083V357.289C350.218 357.392 350.218 357.083 350.115 357.083C350.115 356.672 350.115 356.261 349.91 355.952C349.704 355.644 349.396 355.438 349.087 355.232C348.368 354.924 347.546 355.13 347.032 355.849C346.827 356.158 346.724 356.569 346.724 356.878C346.724 357.289 346.724 357.7 346.929 358.111C347.238 358.831 348.06 359.242 348.779 359.037C349.19 358.934 349.601 358.728 349.807 358.42C350.115 358.008 350.218 357.597 350.115 357.083C350.218 357.083 350.218 356.878 350.115 356.878V357.083Z" fill="white"/>
<path d="M395.845 338.782C395.845 339.09 395.639 339.399 395.434 339.604C395.228 339.81 394.92 340.016 394.714 340.118C394.098 340.324 393.378 340.118 392.967 339.707C392.762 339.501 392.556 339.193 392.556 338.885C392.556 338.576 392.659 338.268 392.865 338.062C393.276 337.548 393.892 337.239 394.509 337.342C394.817 337.445 395.125 337.548 395.434 337.754C395.639 338.062 395.845 338.473 395.845 338.782V338.987C395.948 339.09 395.948 338.782 395.845 338.782C395.845 338.37 395.845 337.959 395.639 337.651C395.434 337.342 395.125 337.137 394.817 336.931C394.098 336.623 393.276 336.828 392.762 337.548C392.556 337.856 392.454 338.268 392.454 338.576C392.454 338.987 392.454 339.399 392.659 339.81C392.967 340.53 393.79 340.941 394.509 340.735C394.92 340.632 395.331 340.427 395.537 340.118C395.845 339.707 395.948 339.193 395.845 338.782C395.948 338.782 395.948 338.576 395.845 338.576C395.845 338.576 395.948 338.782 395.845 338.782Z" fill="white"/>
<path d="M385.157 299.403C385.157 299.711 384.952 300.02 384.746 300.225C384.541 300.431 384.232 300.637 384.027 300.739C383.41 300.945 382.691 300.739 382.28 300.328C382.074 300.123 381.869 299.814 381.869 299.506C381.869 299.197 381.972 298.889 382.177 298.683C382.588 298.169 383.205 297.861 383.821 297.963C384.13 298.066 384.438 298.169 384.746 298.375C384.952 298.683 385.157 299.094 385.157 299.403V299.608C385.26 299.711 385.26 299.403 385.157 299.403C385.157 298.992 385.157 298.58 384.952 298.272C384.746 297.963 384.438 297.758 384.13 297.552C383.41 297.244 382.588 297.449 382.074 298.169C381.869 298.477 381.766 298.889 381.766 299.197C381.766 299.608 381.766 300.02 381.972 300.431C382.28 301.151 383.102 301.562 383.821 301.356C384.232 301.254 384.643 301.048 384.849 300.739C385.157 300.328 385.26 299.917 385.157 299.403C385.26 299.403 385.26 299.197 385.157 299.197V299.403Z" fill="white"/>
<path d="M362.549 322.537C362.549 322.845 362.344 323.154 362.138 323.359C361.933 323.565 361.625 323.77 361.419 323.873C360.802 324.079 360.083 323.873 359.672 323.462C359.466 323.256 359.261 322.948 359.261 322.639C359.261 322.331 359.364 322.023 359.569 321.817C359.98 321.303 360.597 320.994 361.213 321.097C361.522 321.2 361.83 321.303 362.138 321.508C362.241 321.817 362.447 322.228 362.549 322.537V322.742C362.549 322.845 362.549 322.537 362.549 322.537C362.549 322.125 362.549 321.714 362.344 321.406C362.138 321.097 361.83 320.892 361.522 320.686C360.802 320.377 359.98 320.583 359.466 321.303C359.261 321.611 359.158 322.023 359.158 322.331C359.158 322.742 359.158 323.154 359.364 323.565C359.672 324.285 360.494 324.696 361.213 324.49C361.625 324.387 362.036 324.182 362.241 323.873C362.447 323.462 362.549 323.051 362.549 322.537C362.652 322.537 362.652 322.331 362.549 322.331C362.447 322.331 362.549 322.537 362.549 322.537Z" fill="white"/>
<path d="M409.718 319.144C409.718 319.452 409.512 319.761 409.307 319.966C409.101 320.172 408.793 320.377 408.587 320.48C407.971 320.686 407.252 320.48 406.84 320.069C406.635 319.863 406.429 319.555 406.429 319.246C406.429 318.938 406.532 318.63 406.738 318.424C407.149 317.91 407.765 317.601 408.382 317.704C408.69 317.807 408.999 317.91 409.307 318.115C409.41 318.424 409.718 318.835 409.718 319.144V319.349C409.718 319.452 409.718 319.144 409.718 319.144C409.718 318.732 409.718 318.321 409.512 318.013C409.307 317.704 408.999 317.499 408.69 317.293C407.971 316.985 407.149 317.19 406.635 317.91C406.429 318.218 406.327 318.63 406.327 318.938C406.327 319.349 406.327 319.761 406.532 320.172C406.84 320.892 407.663 321.303 408.382 321.097C408.793 320.994 409.204 320.789 409.41 320.48C409.615 320.069 409.718 319.555 409.718 319.144C409.821 319.144 409.821 318.938 409.718 318.938V319.144Z" fill="white"/>
<path d="M332.029 311.535C329.973 312.152 327.61 312.872 325.452 312.769C325.349 312.769 325.143 312.769 325.041 312.769C324.835 312.769 324.527 312.769 324.321 312.666C324.013 312.563 324.116 312.358 324.321 312.152C324.732 311.33 325.246 310.61 325.863 309.89C327.507 307.937 329.46 306.189 331.412 304.544C332.748 303.516 334.392 301.973 336.139 301.562C336.345 301.562 336.55 301.459 336.756 301.562L336.858 301.665C336.858 301.459 336.961 301.768 336.858 301.665C336.858 301.87 336.756 302.076 336.653 302.179C336.036 303.413 335.112 304.441 334.187 305.366C334.084 305.469 334.187 305.88 334.187 305.88C335.42 305.263 336.653 304.749 337.886 304.338C338.605 304.132 339.53 303.721 340.352 303.824C340.558 303.824 340.866 303.927 340.866 303.927C340.866 303.927 340.352 304.544 340.147 304.749C339.222 305.675 338.194 306.394 337.064 307.114C336.961 307.114 337.064 307.628 337.064 307.628C337.578 307.628 337.989 307.525 338.503 307.731C338.708 307.834 338.914 307.834 338.914 307.937C338.914 308.348 337.886 308.862 337.578 309.068C335.934 310.199 333.981 310.918 332.029 311.535C331.926 311.535 332.029 312.049 332.029 312.049C333.467 311.535 334.906 311.021 336.345 310.404C337.167 309.993 338.092 309.582 338.811 308.862C339.017 308.554 339.222 308.245 339.119 307.937C339.017 307.114 337.783 307.32 337.167 307.32C337.167 307.525 337.167 307.628 337.167 307.834C338.4 307.011 339.736 306.189 340.661 305.058C340.866 304.749 341.175 304.235 340.969 303.824C340.661 303.31 339.428 303.721 339.017 303.824C337.372 304.235 335.728 304.955 334.187 305.675C334.187 305.88 334.187 305.983 334.187 306.189C335.112 305.161 336.036 304.132 336.653 303.001C336.859 302.59 337.064 302.076 336.961 301.665C336.653 300.431 333.57 302.693 333.056 303.001C330.384 304.852 327.815 307.114 325.76 309.685C325.143 310.404 323.602 312.049 324.116 313.18C324.321 313.489 324.835 313.489 325.143 313.489C325.657 313.592 326.274 313.489 326.788 313.489C328.535 313.283 330.384 312.872 332.029 312.255C332.131 312.049 332.029 311.535 332.029 311.535Z" fill="white"/>
<path d="M361.419 285.523C361.111 285.934 360.186 285.523 359.775 285.317C358.644 284.906 357.617 284.289 356.692 283.672C356.692 283.672 356.589 284.083 356.692 284.186C357.514 285.317 358.233 286.448 358.953 287.682C359.158 288.093 359.364 288.504 359.569 289.018C359.672 289.224 359.672 289.43 359.775 289.635C359.775 289.738 359.775 289.841 359.878 289.841C359.878 290.047 359.878 289.841 359.878 289.944C359.569 290.355 358.747 289.841 358.439 289.635C357.411 288.916 356.486 287.99 355.562 287.065C355.562 287.065 355.562 287.476 355.562 287.579C355.664 287.99 355.973 288.916 355.459 289.121C355.253 289.121 355.048 289.121 354.945 289.018C354.328 288.71 353.917 288.093 353.506 287.682C351.965 285.934 350.834 283.775 349.807 281.718C349.807 281.924 349.807 282.027 349.807 282.232C351.04 281.924 352.376 281.718 353.712 281.616C354.945 281.513 356.486 281.41 357.72 281.718C358.233 281.821 358.747 282.438 359.158 282.849C359.569 283.261 359.98 283.672 360.289 284.083C360.597 284.392 360.905 284.803 361.214 285.214C361.316 285.317 361.419 285.523 361.419 285.625C361.316 285.317 361.316 285.42 361.419 285.523C361.419 285.625 361.419 285.42 361.419 285.523C361.316 285.625 361.419 285.934 361.419 286.037C361.625 285.625 361.419 285.111 361.316 284.7C360.802 283.672 359.98 282.849 359.158 282.13C358.85 281.821 358.542 281.616 358.336 281.307C358.233 281.204 358.028 280.999 357.925 280.896C357.72 280.793 357.411 280.793 357.206 280.793C356.384 280.69 355.562 280.69 354.739 280.69C353.095 280.69 351.348 280.999 349.704 281.41C349.601 281.41 349.704 281.821 349.704 281.924C350.937 284.289 352.273 286.859 354.123 288.71C354.431 289.018 355.15 289.738 355.562 289.327C356.075 288.813 355.664 287.476 355.562 286.962C355.562 287.168 355.562 287.27 355.562 287.476C356.486 288.504 357.617 289.635 358.85 290.355C359.364 290.663 359.878 290.766 359.98 290.047C359.98 289.327 359.672 288.607 359.364 287.887C358.644 286.448 357.72 285.008 356.692 283.672C356.692 283.878 356.692 283.98 356.692 284.186C357.72 284.803 358.85 285.523 359.98 285.934C360.391 286.037 361.213 286.448 361.522 286.037C361.522 285.934 361.316 285.523 361.419 285.523Z" fill="white"/>
<path d="M322.574 356.878C322.78 358.831 322.883 360.887 322.472 362.841C322.369 363.252 322.163 364.486 321.547 364.383C320.827 364.28 320.108 363.355 319.697 362.841C318.772 361.71 317.847 360.476 317.128 359.242C315.587 356.775 314.045 354.102 313.326 351.325C313.223 351.017 313.017 350.194 313.531 350.092C313.84 350.092 314.148 350.297 314.251 350.4C315.381 351.223 316.203 352.559 317.025 353.69C317.025 353.69 317.025 353.279 317.025 353.176C316.82 352.354 315.381 346.904 316.614 346.596C317.128 346.493 317.642 347.418 317.745 347.83C318.361 348.858 318.772 349.989 319.183 351.017C319.286 350.606 319.389 349.063 320.211 349.269C320.622 349.372 320.93 350.194 321.033 350.503C322.061 352.559 322.369 354.821 322.574 356.878C322.574 357.083 322.574 356.569 322.574 356.466C322.472 355.027 322.266 353.485 321.855 352.045C321.65 351.12 321.444 350.092 320.93 349.269C320.622 348.858 320.211 348.447 319.903 349.063C319.697 349.372 319.697 349.68 319.594 349.886C319.389 350.194 319.594 350.297 319.286 349.989C319.08 349.783 318.978 349.269 318.875 348.961C318.669 348.652 318.567 348.241 318.361 347.932C318.156 347.521 317.539 346.082 316.922 346.082C316.409 346.082 316.409 346.699 316.409 347.007C316.203 349.166 316.717 351.428 317.231 353.587C317.231 353.382 317.231 353.279 317.231 353.073C316.922 352.662 313.942 348.447 313.326 349.783C313.223 350.092 313.223 350.709 313.326 351.017C313.531 352.148 313.942 353.176 314.353 354.204C315.689 357.186 317.333 360.168 319.389 362.738C319.903 363.458 320.519 364.28 321.341 364.692C322.061 365.103 322.163 364.692 322.369 364.075C323.088 361.71 322.883 358.934 322.677 356.466C322.574 356.363 322.574 356.775 322.574 356.878Z" fill="white"/>
<path d="M397.386 322.331C397.592 324.285 397.694 326.341 397.283 328.294C397.181 328.706 396.975 329.939 396.359 329.837C395.639 329.734 394.92 328.809 394.509 328.294C393.584 327.163 392.659 325.93 391.94 324.696C390.398 322.228 388.857 319.555 388.137 316.779C388.035 316.47 387.829 315.648 388.343 315.545C388.651 315.545 388.96 315.751 389.062 315.854C390.193 316.676 391.015 318.013 391.837 319.144C391.837 319.144 391.837 318.732 391.837 318.63C391.631 317.807 390.193 312.358 391.426 312.049C391.94 311.947 392.454 312.872 392.556 313.283C393.173 314.311 393.584 315.442 393.995 316.47C394.098 316.059 394.201 314.517 395.023 314.723C395.434 314.825 395.742 315.648 395.845 315.956C396.872 318.013 397.181 320.172 397.386 322.331C397.386 322.537 397.386 322.023 397.386 321.92C397.283 320.48 397.078 318.938 396.667 317.499C396.461 316.573 396.256 315.545 395.742 314.723C395.434 314.311 395.023 313.9 394.714 314.517C394.509 314.825 394.509 315.134 394.406 315.34C394.201 315.648 394.406 315.751 394.098 315.442C393.892 315.237 393.789 314.723 393.687 314.414C393.481 314.106 393.378 313.694 393.173 313.386C392.967 312.975 392.351 311.535 391.734 311.535C391.22 311.535 391.22 312.152 391.22 312.461C391.015 314.62 391.529 316.882 392.042 319.041C392.042 318.835 392.042 318.732 392.042 318.527C391.734 318.116 388.754 313.9 388.137 315.237C388.035 315.545 388.035 316.162 388.137 316.47C388.343 317.601 388.754 318.63 389.165 319.658C390.501 322.639 392.145 325.621 394.201 328.192C394.714 328.911 395.331 329.734 396.153 330.145C396.872 330.556 396.975 330.145 397.181 329.528C397.9 327.163 397.694 324.387 397.489 321.92C397.386 321.714 397.386 322.228 397.386 322.331Z" fill="white"/>
<path d="M403.449 284.7C402.73 286.345 402.011 287.99 401.086 289.635C400.366 290.972 399.544 292.308 398.517 293.439C398.311 293.748 397.489 294.776 396.975 294.468C396.564 294.159 396.872 293.131 396.975 292.72C397.181 291.794 397.489 290.869 397.9 289.944C397.9 289.841 397.9 289.43 397.9 289.43C396.975 290.458 395.948 291.383 394.92 292.308C394.303 292.823 393.584 293.439 392.865 293.645C392.659 293.645 392.454 293.748 392.351 293.645C392.145 293.439 392.454 292.925 392.556 292.72C393.07 291.589 393.79 290.458 394.509 289.43C394.509 289.327 394.509 288.915 394.509 288.915C394.098 289.121 393.173 289.635 392.659 289.327C392.556 289.327 392.556 289.224 392.454 289.121C392.351 289.327 392.556 289.224 392.454 289.121C392.556 288.915 392.556 288.813 392.659 288.607C393.276 287.476 394.201 286.551 395.125 285.625C395.742 285.008 396.359 284.494 396.975 283.98C397.283 283.672 397.592 283.466 398.003 283.158C398.106 283.055 398.208 282.952 398.414 282.952C398.619 282.952 398.825 283.055 399.03 283.055C400.572 283.466 402.113 284.186 403.449 285.008C403.449 285.214 403.552 284.803 403.449 284.7C402.627 284.186 401.805 283.672 400.88 283.363C400.469 283.158 399.955 283.055 399.544 282.849C399.236 282.746 399.03 282.644 398.722 282.644C398.414 282.541 398.414 282.541 398.208 282.644C397.797 282.849 397.386 283.261 397.078 283.569C396.667 283.877 396.256 284.289 395.948 284.597C395.228 285.214 394.612 285.934 393.995 286.551C393.378 287.27 392.556 288.093 392.454 289.018C392.454 289.224 392.454 289.532 392.556 289.738C392.967 290.252 394.098 289.635 394.509 289.43C394.509 289.224 394.509 289.121 394.509 288.915C393.687 290.046 392.762 291.383 392.351 292.72C392.248 293.028 392.043 293.851 392.351 294.159C392.865 294.57 393.995 293.542 394.303 293.234C395.639 292.206 396.77 291.075 397.9 289.841C397.9 289.635 397.9 289.532 397.9 289.327C397.386 290.766 396.667 292.411 396.77 293.953C396.77 294.262 396.77 294.673 397.078 294.879C397.386 295.084 397.695 294.776 397.9 294.57C399.03 293.645 399.853 292.206 400.572 291.075C401.702 289.121 402.73 287.168 403.552 285.111C403.552 285.008 403.449 284.803 403.449 284.7Z" fill="white"/>
<path d="M373.237 332.304C372.723 336.006 371.695 339.81 370.051 343.1C369.846 343.511 369.126 345.054 368.51 344.951C367.996 344.848 367.996 343.923 367.996 343.614C367.996 342.483 368.201 341.352 368.407 340.324C368.407 340.221 368.407 339.913 368.407 339.81C367.688 340.941 366.968 342.072 366.146 343.1C365.632 343.717 365.016 344.539 364.296 344.951C363.68 345.362 363.474 344.848 363.68 344.231C363.988 342.997 364.502 341.763 365.016 340.53C365.016 340.427 365.016 340.016 365.016 340.016C364.707 340.221 363.372 341.249 363.063 340.53C362.858 340.118 363.577 339.09 363.783 338.782C364.194 337.959 364.707 337.137 365.324 336.417C365.632 336.006 365.941 335.492 366.352 335.08C366.557 334.875 366.557 334.772 366.865 334.669C367.79 334.258 368.818 333.949 369.743 333.641C370.976 333.23 372.209 332.818 373.545 332.818C373.34 332.716 373.34 332.201 373.237 332.304C371.079 332.201 368.921 333.23 366.968 333.949C366.557 334.052 366.557 334.052 366.249 334.463C365.632 335.286 365.016 336.108 364.399 337.034C363.783 337.959 362.96 339.193 362.858 340.324C362.858 340.53 362.755 340.941 362.96 341.147C363.372 341.661 364.502 340.838 364.81 340.53C364.81 340.324 364.81 340.221 364.81 340.016C364.194 341.352 363.577 342.689 363.372 344.128C363.372 344.437 363.166 345.465 363.577 345.568C364.194 345.773 365.119 344.642 365.324 344.231C366.352 342.997 367.277 341.661 368.201 340.324C368.201 340.118 368.201 340.016 368.201 339.81C367.893 341.352 367.585 343.1 367.893 344.745C367.996 345.054 368.099 345.465 368.51 345.465C368.921 345.465 369.229 344.951 369.332 344.642C370.359 343.1 371.079 341.147 371.593 339.399C372.312 337.239 372.826 334.978 373.134 332.613C373.34 332.613 373.237 332.099 373.237 332.304Z" fill="white"/>
<path d="M342.716 302.282C343.333 301.871 343.846 301.254 344.36 300.74C344.977 300.225 345.491 299.609 346.005 298.992C346.107 298.889 346.107 298.683 346.005 298.58C346.005 298.58 346.005 298.272 345.902 298.375C345.285 298.889 344.771 299.403 344.258 300.02C343.641 300.637 343.127 301.151 342.613 301.768C342.511 301.871 342.613 302.076 342.613 302.179C342.716 302.076 342.716 302.282 342.716 302.282Z" fill="white"/>
<path d="M343.435 303.618C344.052 303.207 344.669 302.59 345.182 302.076C345.799 301.459 346.416 300.842 346.929 300.225C347.032 300.123 346.929 299.917 346.929 299.814C346.929 299.814 346.929 299.506 346.827 299.609C346.21 300.123 345.593 300.739 345.08 301.254C344.463 301.87 343.846 302.487 343.333 303.207C343.333 303.31 343.435 303.618 343.435 303.618Z" fill="white"/>
<path d="M343.949 305.058C344.155 304.955 344.36 304.852 344.463 304.646C344.669 304.441 344.874 304.338 344.977 304.132C345.182 303.927 345.285 303.824 345.491 303.618C345.696 303.413 345.799 303.207 346.004 303.001C346.107 302.899 346.004 302.693 346.004 302.59C346.004 302.59 346.004 302.282 345.902 302.385C345.696 302.487 345.491 302.693 345.388 302.796C345.182 303.001 344.977 303.207 344.874 303.31C344.669 303.515 344.566 303.721 344.36 303.927C344.155 304.132 344.052 304.338 343.846 304.646C343.846 304.749 343.846 304.852 343.846 304.852C343.846 304.955 343.949 305.058 343.949 305.058Z" fill="white"/>
<path d="M373.853 314.414C373.853 314.517 373.853 314.517 373.853 314.62V314.723C373.853 314.62 373.853 314.62 373.853 314.723C373.853 314.825 373.853 314.928 373.853 315.031C373.853 315.339 373.853 315.648 373.751 315.956C373.751 316.676 373.751 317.293 373.751 318.013C373.751 318.115 373.751 318.321 373.853 318.424C373.853 318.527 373.853 318.63 373.956 318.63C374.059 318.63 374.162 318.321 374.162 318.218C374.264 317.499 374.264 316.882 374.162 316.162C374.162 315.545 374.059 315.031 374.059 314.414C374.059 314.311 374.059 314.003 373.956 314.003C373.853 314.003 373.853 314.311 373.853 314.414Z" fill="white"/>
<path d="M375.703 314.414C375.6 314.928 375.6 315.442 375.6 316.059C375.6 316.676 375.498 317.293 375.498 317.91C375.498 318.116 375.498 318.424 375.6 318.63C375.6 318.732 375.6 318.835 375.703 318.938C375.909 319.041 375.909 318.321 375.909 318.218C375.909 317.601 375.909 316.882 375.806 316.265C375.909 315.545 375.909 315.031 375.703 314.414C375.806 314.311 375.806 314.208 375.703 314.414Z" fill="white"/>
<path d="M374.676 314.517C374.573 314.62 374.573 314.723 374.573 314.825C374.573 314.928 374.573 315.031 374.573 315.134C374.573 315.34 374.573 315.648 374.573 315.854C374.573 316.471 374.47 317.19 374.573 317.807C374.573 317.91 374.573 318.218 374.778 318.321H374.881C374.881 318.218 374.984 318.116 374.984 318.013C375.087 317.396 375.087 316.779 374.984 316.162C374.984 315.854 374.984 315.648 374.984 315.34C374.984 315.237 374.984 315.031 374.984 314.928C374.984 314.825 374.984 314.62 374.881 314.517C374.778 314.517 374.778 314.517 374.676 314.517Z" fill="white"/>
<path d="M371.284 292.103C372.004 292.925 372.723 293.748 373.545 294.468V294.365C373.545 294.262 373.545 294.159 373.545 294.159C373.237 293.748 372.826 293.337 372.415 293.028C372.004 292.72 371.695 292.308 371.284 292V292.103C371.284 292 371.284 292 371.284 292.103Z" fill="white"/>
<path d="M372.517 290.766C372.929 291.178 373.34 291.692 373.751 292.103C373.956 292.309 374.162 292.514 374.367 292.72C374.47 292.823 374.573 292.925 374.675 293.028C374.778 293.131 374.881 293.234 374.984 293.337C375.087 293.337 374.984 293.028 374.984 293.028C374.881 292.925 374.778 292.823 374.675 292.72C374.573 292.617 374.47 292.514 374.367 292.411C374.162 292.206 373.956 292 373.751 291.794C373.34 291.383 372.929 290.972 372.517 290.766Z" fill="white"/>
<path d="M372.004 291.589C372.106 291.794 372.312 292 372.415 292.206C372.517 292.411 372.723 292.514 372.826 292.72C373.134 293.028 373.442 293.337 373.751 293.645C373.751 293.645 373.751 293.542 373.853 293.542C373.853 293.439 373.853 293.337 373.853 293.337C373.545 293.028 373.237 292.72 372.929 292.411C372.826 292.308 372.62 292.103 372.517 292C372.415 291.897 372.415 291.897 372.312 291.794C372.209 291.692 372.106 291.589 372.004 291.589Z" fill="white"/>
<path d="M338.092 343.614C338.092 343.923 338.092 344.334 338.092 344.642C338.092 345.054 338.092 345.465 338.092 345.876C338.092 345.979 338.092 346.184 338.092 346.287C338.092 346.287 338.092 346.39 338.194 346.493C338.297 346.493 338.297 346.082 338.297 346.082C338.297 345.67 338.297 345.259 338.297 344.848C338.297 344.437 338.297 344.128 338.297 343.717C338.297 343.614 338.297 343.408 338.194 343.408C338.092 343.306 338.092 343.614 338.092 343.614Z" fill="white"/>
<path d="M338.811 343.511C338.708 343.923 338.708 344.437 338.708 344.848C338.708 345.465 338.606 345.979 338.708 346.596C338.708 346.596 338.708 346.699 338.811 346.699L338.914 346.596C339.017 346.287 338.914 345.979 338.914 345.67C338.914 345.465 338.914 345.156 338.914 344.951C338.914 344.437 338.914 344.025 338.811 343.511Z" fill="white"/>
<path d="M337.167 343.82C337.064 344.745 337.064 345.773 337.064 346.699C337.064 346.801 337.064 347.007 337.167 347.11C337.27 347.11 337.27 346.904 337.27 346.801C337.372 345.876 337.27 344.848 337.167 343.82C337.27 343.82 337.167 343.717 337.167 343.82Z" fill="white"/>
<path d="M379.505 346.493C379.916 346.082 380.43 345.773 380.841 345.362C381.047 345.156 381.252 344.951 381.458 344.745C381.663 344.54 381.869 344.231 382.074 343.923C382.177 343.82 382.177 343.614 382.074 343.511C382.074 343.511 382.074 343.203 381.972 343.203C381.869 343.306 381.766 343.306 381.663 343.409C381.561 343.511 381.458 343.614 381.355 343.717C381.15 343.923 380.944 344.128 380.739 344.437C380.327 344.951 379.916 345.362 379.403 345.876C379.3 345.979 379.403 346.185 379.403 346.287C379.403 346.39 379.403 346.596 379.505 346.493Z" fill="white"/>
<path d="M380.328 347.727C380.944 347.213 381.561 346.596 382.177 346.082C382.794 345.465 383.513 344.951 384.027 344.231C384.13 344.128 384.13 343.923 384.027 343.717C384.027 343.717 384.027 343.408 383.924 343.408C383.616 343.614 383.308 343.923 382.999 344.231C382.691 344.539 382.383 344.848 382.074 345.156C381.458 345.773 380.841 346.493 380.225 347.11C380.122 347.213 380.225 347.315 380.225 347.418C380.328 347.624 380.328 347.83 380.328 347.727Z" fill="white"/>
<path d="M378.683 344.951C379.916 343.923 381.15 342.894 382.177 341.763C382.28 341.661 382.28 341.352 382.177 341.249C382.177 341.249 382.177 340.941 382.074 340.941C380.841 342.072 379.711 343.409 378.58 344.642C378.683 344.745 378.683 344.951 378.683 344.951Z" fill="white"/>
<path d="M323.397 322.434C323.705 322.948 324.116 323.359 324.527 323.77C324.732 323.976 324.938 324.182 325.143 324.285C325.349 324.49 325.555 324.593 325.76 324.799C325.863 324.901 325.863 324.593 325.863 324.593C325.863 324.49 325.863 324.285 325.76 324.182C325.555 323.976 325.349 323.668 325.143 323.462C324.938 323.256 324.732 323.051 324.527 322.845C324.116 322.537 323.808 322.125 323.397 321.92V322.125C323.294 322.228 323.294 322.434 323.397 322.434Z" fill="white"/>
<path d="M322.883 324.079C323.396 324.593 323.808 325.21 324.321 325.724C324.835 326.238 325.246 326.752 325.76 327.163C325.863 327.266 325.863 326.958 325.863 326.855C325.863 326.752 325.863 326.546 325.76 326.444C325.349 325.93 324.835 325.416 324.321 325.004C323.808 324.593 323.396 324.079 322.883 323.668C322.883 323.668 322.78 323.77 322.78 323.873C322.883 323.873 322.883 323.976 322.883 324.079Z" fill="white"/>
<path d="M409.821 332.818L421.741 332.099C424.927 331.893 427.907 333.641 429.346 336.52L432.942 343.923C433.353 344.848 433.251 346.082 432.531 346.904C432.429 347.007 432.223 347.007 432.12 346.904L428.01 339.501C427.907 339.399 427.701 339.399 427.701 339.604L428.215 344.334C428.318 345.259 428.01 346.082 427.29 346.699C426.879 347.007 426.366 347.213 425.852 347.213H417.22C417.014 347.213 416.809 347.007 416.911 346.801C417.014 346.287 417.528 345.773 418.144 345.773L419.378 345.67L419.583 343.923C419.686 343.1 418.864 342.38 418.144 342.689L405.094 346.493C406.224 341.558 407.765 336.931 409.821 332.818Z" fill="#FFB000"/>
<path d="M424.105 347.727H417.425V347.213H420.611C421.33 347.213 421.844 346.699 421.947 345.979L422.152 341.661C422.152 341.558 422.255 341.455 422.358 341.455C422.46 341.455 422.563 341.558 422.563 341.763L422.358 346.082C422.358 346.596 422.152 347.007 421.844 347.316H424.105C424.413 347.316 424.824 347.213 425.03 346.904C425.235 346.596 425.338 346.287 425.338 345.979L424.824 340.221C424.824 340.118 424.927 339.913 425.03 339.913C425.132 339.913 425.338 340.016 425.338 340.118L425.852 345.876C425.852 346.39 425.749 346.801 425.441 347.213C425.03 347.521 424.618 347.727 424.105 347.727Z" fill="#070707"/>
</svg>
