<!DOCTYPE svg PUBLIC "-//W3C//DTD SVG 1.1//EN" "http://www.w3.org/Graphics/SVG/1.1/DTD/svg11.dtd">
<!-- Uploaded to: SVG Repo, www.svgrepo.com, Transformed by: SVG Repo Mixer Tools -->
<svg fill="#ffffff" height="800px" width="800px" version="1.1" id="Layer_1" xmlns="http://www.w3.org/2000/svg" xmlns:xlink="http://www.w3.org/1999/xlink" viewBox="0 0 472.615 472.615" xml:space="preserve">
<g id="SVGRepo_bgCarrier" stroke-width="0"/>
<g id="SVGRepo_tracerCarrier" stroke-linecap="round" stroke-linejoin="round"/>
<g id="SVGRepo_iconCarrier"> <g> <g> <path d="M246.164,10.516v117.458c29.941-1.279,58.783-8.32,85.349-20.641C312.004,53.742,280.997,16.496,246.164,10.516z"/> </g> </g> <g> <g> <path d="M76.202,62.203c14.116,14.087,29.857,25.894,46.654,35.65c15.827-42.792,38.936-75.698,66.378-93.405 C146.157,13.148,107.336,33.558,76.202,62.203z"/> </g> </g> <g> <g> <path d="M283.379,4.449c27.44,17.705,50.549,50.61,66.377,93.399c16.801-9.756,32.555-21.541,46.674-35.627 C365.292,33.567,326.466,13.15,283.379,4.449z"/> </g> </g> <g> <g> <path d="M119.803,246.165c0.832,35.723,6.162,69.593,14.883,99.503c28.599-12.958,59.622-20.358,91.765-21.614v-77.889H119.803z"/> </g> </g> <g> <g> <path d="M140.898,364.737c19.496,53.883,50.598,91.361,85.552,97.363V344.008C196.425,345.288,167.515,352.359,140.898,364.737z"/> </g> </g> <g> <g> <path d="M410.372,76.163c-16.336,16.303-34.586,29.978-54.2,40.932c9.732,32.468,15.524,69.566,16.352,109.355h100.091 C470.24,168.558,447.081,116.041,410.372,76.163z"/> </g> </g> <g> <g> <path d="M62.248,76.155C25.536,116.037,2.376,168.554,0,226.451h100.089c0.828-39.785,6.62-76.884,16.351-109.348 C96.827,106.147,78.587,92.461,62.248,76.155z"/> </g> </g> <g> <g> <path d="M134.854,126.386c-8.818,30.049-14.213,64.117-15.051,100.064h106.648v-78.525 C194.373,146.672,163.408,139.297,134.854,126.386z"/> </g> </g> <g> <g> <path d="M141.098,107.338c26.563,12.32,55.404,19.357,85.352,20.635V10.516C191.615,16.497,160.607,53.745,141.098,107.338z"/> </g> </g> <g> <g> <path d="M100.089,246.165H0C2.369,303.899,25.399,356.29,61.934,396.13c16.37-16.398,34.663-30.148,54.336-41.157 C106.638,322.639,100.912,285.728,100.089,246.165z"/> </g> </g> <g> <g> <path d="M372.524,246.165c-0.823,39.566-6.55,76.477-16.183,108.814c19.619,10.978,37.874,24.675,54.207,41.007l0.148,0.121 c36.511-39.836,59.551-92.221,61.92-149.942H372.524z"/> </g> </g> <g> <g> <path d="M396.611,409.924c-14.111-14.109-29.87-25.905-46.67-35.682c-15.832,43.041-39.01,76.148-66.562,93.925 c43.243-8.733,82.206-29.258,113.391-58.077L396.611,409.924z"/> </g> </g> <g> <g> <path d="M337.76,126.383c-28.558,12.913-59.526,20.289-91.596,21.542v78.525H352.81 C351.972,190.502,346.579,156.434,337.76,126.383z"/> </g> </g> <g> <g> <path d="M122.67,374.236c-16.859,9.812-32.662,21.67-46.811,35.849c31.193,28.815,70.136,49.351,113.375,58.082 C161.682,450.39,138.503,417.28,122.67,374.236z"/> </g> </g> <g> <g> <path d="M246.164,344.007V462.1c34.952-6.002,66.053-43.477,85.549-97.359C305.093,352.363,276.182,345.288,246.164,344.007z"/> </g> </g> <g> <g> <path d="M246.164,246.165v77.889c32.133,1.256,63.161,8.658,91.764,21.617c8.721-29.913,14.05-63.782,14.882-99.506H246.164z"/> </g> </g> </g>
</svg>